<svg width="100%" height="100%" viewBox="0 0 37 28" version="1.1" xmlns="http://www.w3.org/2000/svg" xmlns:xlink="http://www.w3.org/1999/xlink" xml:space="preserve" xmlns:serif="http://www.serif.com/" style="fill-rule:evenodd;clip-rule:evenodd;stroke-linejoin:round;stroke-miterlimit:2;">
    <g transform="matrix(1,0,0,1,-3884.64,-172.34)">
        <path d="M3911.69,175.662L3913.3,179.885C3913.4,180.028 3913.4,180.123 3913.4,180.265C3913.4,180.834 3912.97,181.261 3912.45,181.261L3893.09,181.261C3892.95,181.261 3892.85,181.261 3892.71,181.214C3892.23,181.024 3892,180.455 3892.19,179.933L3893.8,175.709C3893.89,175.282 3894.27,174.998 3894.7,174.998L3910.79,174.998C3911.17,174.998 3911.55,175.282 3911.69,175.662ZM3886.92,194.691L3918.57,194.691C3918.66,194.691 3918.76,194.643 3918.81,194.596C3918.9,194.548 3918.9,194.453 3918.9,194.359L3918.9,187.051C3918.9,186.813 3918.85,186.576 3918.76,186.339C3918.66,186.149 3918.52,185.959 3918.33,185.817L3915.87,183.729C3915.77,183.587 3915.68,183.444 3915.58,183.302L3915.39,182.827C3915.2,182.305 3915.49,181.784 3915.96,181.594C3916.05,181.546 3916.1,181.546 3916.2,181.499L3918.1,181.119C3918.19,181.119 3918.24,181.072 3918.29,181.024C3918.33,180.929 3918.38,180.882 3918.38,180.787L3918.38,180.645L3915.25,180.692C3914.87,180.692 3914.49,180.407 3914.35,180.028L3912.26,174.523C3912.21,174.428 3912.16,174.381 3912.12,174.333C3912.07,174.286 3912.02,174.286 3911.93,174.286L3893.61,174.286C3893.52,174.286 3893.42,174.286 3893.37,174.333C3893.33,174.381 3893.28,174.428 3893.28,174.523L3891.14,180.028C3891,180.455 3890.57,180.692 3890.15,180.692L3887.16,180.645L3887.16,180.787C3887.16,180.882 3887.16,180.929 3887.2,181.024C3887.25,181.072 3887.35,181.119 3887.44,181.119L3889.39,181.546C3889.91,181.641 3890.24,182.163 3890.15,182.685C3890.15,182.733 3890.1,182.78 3890.1,182.827L3889.91,183.302C3889.86,183.492 3889.72,183.634 3889.58,183.729L3887.16,185.817C3886.97,185.959 3886.82,186.149 3886.73,186.339C3886.63,186.576 3886.59,186.813 3886.59,187.051L3886.59,194.359C3886.59,194.453 3886.63,194.548 3886.68,194.596C3886.73,194.643 3886.82,194.691 3886.92,194.691ZM3914.96,188.095L3909.74,189.186L3909.74,189.613L3914.96,189.566L3914.96,188.095ZM3909.13,187.335L3915.72,185.959C3916.25,185.817 3916.77,186.197 3916.91,186.719L3916.91,189.898C3916.91,190.325 3916.72,190.752 3916.43,191.037C3916.15,191.322 3915.72,191.511 3915.3,191.511L3908.79,191.559C3908.23,191.559 3907.8,191.084 3907.8,190.562L3907.8,188.949C3907.8,188.522 3907.94,188.19 3908.18,187.905C3908.42,187.62 3908.75,187.43 3909.13,187.335ZM3889.77,185.959L3896.41,187.335C3896.79,187.43 3897.12,187.62 3897.36,187.905C3897.55,188.19 3897.69,188.522 3897.69,188.949L3897.69,190.562C3897.69,191.084 3897.26,191.559 3896.74,191.559L3890.24,191.511C3889.77,191.511 3889.39,191.322 3889.05,191.037C3888.77,190.752 3888.58,190.325 3888.58,189.898L3888.58,186.908C3888.58,186.861 3888.58,186.766 3888.63,186.719C3888.72,186.197 3889.24,185.817 3889.77,185.959ZM3895.75,189.186L3890.53,188.095L3890.53,189.566L3895.75,189.613L3895.75,189.186ZM3917.62,197.016L3917.62,196.636L3914.3,196.636L3914.3,197.016C3914.3,197.348 3914.44,197.68 3914.63,197.918C3914.82,198.107 3915.06,198.202 3915.3,198.202L3916.62,198.202C3916.86,198.202 3917.1,198.107 3917.29,197.918C3917.48,197.68 3917.62,197.348 3917.62,197.016ZM3885.92,197.016L3885.92,196.399C3885.69,196.304 3885.5,196.162 3885.31,195.972C3884.88,195.545 3884.64,194.975 3884.64,194.359L3884.64,187.051C3884.64,186.529 3884.74,186.007 3884.97,185.532C3885.16,185.058 3885.5,184.678 3885.92,184.298L3887.35,183.112L3887.01,183.017C3886.49,182.922 3886.02,182.638 3885.73,182.258C3885.4,181.831 3885.21,181.309 3885.21,180.787L3885.21,180.36C3885.21,180.123 3885.26,179.933 3885.31,179.695C3885.4,179.506 3885.54,179.363 3885.69,179.174C3885.83,179.031 3886.02,178.936 3886.21,178.841C3886.4,178.746 3886.63,178.699 3886.82,178.699L3889.58,178.699L3891.43,173.811C3891.62,173.384 3891.9,173.005 3892.28,172.72C3892.66,172.483 3893.09,172.34 3893.61,172.34L3911.93,172.34C3912.4,172.34 3912.83,172.483 3913.21,172.72C3913.59,173.005 3913.87,173.384 3914.06,173.811L3915.91,178.699L3918.66,178.699C3918.9,178.699 3919.09,178.746 3919.28,178.841C3919.52,178.936 3919.66,179.031 3919.85,179.174C3919.99,179.363 3920.09,179.506 3920.18,179.695C3920.28,179.933 3920.33,180.123 3920.33,180.36L3920.33,180.787C3920.33,181.309 3920.14,181.831 3919.8,182.258C3919.47,182.638 3919,182.922 3918.48,183.017L3918.19,183.112L3919.61,184.298C3919.99,184.678 3920.33,185.058 3920.56,185.532C3920.75,186.007 3920.9,186.529 3920.9,187.051L3920.9,194.359C3920.9,194.975 3920.61,195.545 3920.23,195.972L3920.18,195.972C3920.04,196.162 3919.8,196.304 3919.57,196.446L3919.57,197.016C3919.57,197.87 3919.23,198.629 3918.71,199.199C3918.19,199.816 3917.43,200.148 3916.62,200.148L3915.3,200.148C3914.49,200.148 3913.73,199.816 3913.21,199.199C3912.69,198.629 3912.35,197.87 3912.35,197.016L3912.35,196.636L3893.14,196.636L3893.14,197.016C3893.14,197.87 3892.85,198.629 3892.33,199.199C3891.81,199.816 3891.05,200.148 3890.19,200.148L3888.91,200.148C3888.06,200.148 3887.3,199.816 3886.78,199.199C3886.25,198.629 3885.92,197.87 3885.92,197.016ZM3887.92,196.636L3887.92,197.016C3887.92,197.348 3888.01,197.68 3888.2,197.918C3888.39,198.107 3888.63,198.202 3888.91,198.202L3890.19,198.202C3890.48,198.202 3890.72,198.107 3890.86,197.918C3891.1,197.68 3891.19,197.348 3891.19,197.016L3891.19,196.636L3887.92,196.636ZM3911.03,179.316L3910.12,176.991L3895.37,176.991L3894.51,179.316L3911.03,179.316Z" style="fill-rule:nonzero;"/>
    </g>
</svg>
