<svg width="100%" height="100%" viewBox="0 0 35 36" version="1.1" xmlns="http://www.w3.org/2000/svg" xmlns:xlink="http://www.w3.org/1999/xlink" xml:space="preserve" xmlns:serif="http://www.serif.com/" style="fill-rule:evenodd;clip-rule:evenodd;stroke-linejoin:round;stroke-miterlimit:2;">
    <g transform="matrix(1,0,0,1,-3482.96,-324.881)">
        <path d="M3506.11,337.382L3506.59,337.382L3506.59,327.606L3491.93,327.606L3491.93,337.666L3491.97,337.714L3492.02,337.714L3492.07,337.761L3492.12,337.809L3492.16,337.809L3492.16,337.856L3492.21,337.856L3492.21,337.904L3492.26,337.904L3492.26,337.951L3492.31,337.951L3492.31,338.046L3492.35,338.046L3492.35,338.141L3492.4,338.141L3492.4,338.236L3492.45,338.236L3492.45,338.426L3492.5,338.473L3492.5,342.079L3493.21,342.079C3493.73,342.079 3494.16,342.554 3494.16,343.076L3494.16,355.319L3496.24,355.319C3495.11,353.658 3494.44,351.713 3494.3,349.577L3494.3,348.011L3494.35,347.869L3494.35,347.537L3494.39,347.394L3494.39,347.11L3494.44,346.967L3494.44,346.825L3494.49,346.682L3494.54,346.54L3494.54,346.398L3494.58,346.255L3494.63,346.16L3494.63,346.018L3494.68,345.876L3494.73,345.733L3494.77,345.591L3494.82,345.449L3494.82,345.306L3494.87,345.164L3494.92,345.069L3494.96,344.927L3495.01,344.784L3495.06,344.642L3495.15,344.547L3495.2,344.405L3495.25,344.262L3495.29,344.12L3495.34,344.025L3495.44,343.883L3495.48,343.74L3495.53,343.645L3495.63,343.503L3495.67,343.408L3495.72,343.266L3495.82,343.124L3495.86,343.028L3495.96,342.886L3496.01,342.791L3496.1,342.649L3496.15,342.554L3496.24,342.459L3496.34,342.317L3496.39,342.222L3496.48,342.079L3496.58,341.985L3496.67,341.89L3496.72,341.747L3496.81,341.652L3496.91,341.558L3497,341.463L3497.1,341.32L3497.19,341.225L3497.29,341.13L3497.38,341.035L3497.48,340.941L3497.57,340.846L3497.67,340.751L3497.76,340.656L3497.86,340.561L3497.86,340.514L3497.95,340.466L3498.05,340.371L3498.14,340.276L3498.28,340.181L3498.38,340.086L3498.47,339.992L3498.57,339.897L3498.71,339.802L3498.81,339.707L3498.9,339.659L3499.04,339.565L3499.14,339.47L3499.23,339.422L3499.38,339.327L3499.47,339.232L3499.61,339.185L3499.71,339.09L3499.85,339.042L3499.95,338.948L3500.09,338.9L3500.18,338.805L3500.32,338.758L3500.42,338.663L3500.56,338.615L3500.7,338.568L3500.8,338.473L3500.94,338.426L3501.08,338.378L3501.18,338.331L3501.32,338.283L3501.46,338.188L3501.56,338.141L3501.7,338.093L3501.84,338.046L3501.99,337.999L3502.13,337.951L3502.22,337.904L3502.37,337.856L3502.51,337.809L3502.65,337.809L3502.79,337.761L3502.93,337.714L3503.08,337.666L3503.22,337.666L3503.36,337.619L3503.5,337.572L3503.65,337.572L3503.79,337.524L3503.93,337.524L3504.07,337.477L3504.22,337.477L3504.36,337.429L3504.64,337.429L3504.79,337.382L3505.5,337.382L3505.64,337.334L3506.07,337.334L3506.11,337.382ZM3507.44,339.47L3507.4,339.422C3507.06,339.375 3506.73,339.327 3506.45,339.327L3504.93,339.327L3504.83,339.375L3504.6,339.375L3504.45,339.422L3504.22,339.422L3504.12,339.47L3503.98,339.47L3503.88,339.517L3503.74,339.517L3503.65,339.565L3503.55,339.565L3503.41,339.612L3503.31,339.659L3503.17,339.659L3503.08,339.707L3502.98,339.754L3502.84,339.754L3502.75,339.802L3502.6,339.849L3502.51,339.897L3502.41,339.944L3502.32,339.992L3502.18,340.039L3502.08,340.039L3501.99,340.086L3501.84,340.134L3501.75,340.181L3501.65,340.276L3501.56,340.324L3501.46,340.371L3501.37,340.419L3501.23,340.466L3501.13,340.514L3501.04,340.561L3500.94,340.656L3500.85,340.703L3500.75,340.751L3500.66,340.798L3500.56,340.893L3500.47,340.941L3500.37,340.988L3500.28,341.083L3500.18,341.13L3500.09,341.225L3499.99,341.273L3499.9,341.368L3499.8,341.415L3499.71,341.51L3499.61,341.558L3499.57,341.652L3499.47,341.7L3499.38,341.795L3499.28,341.89L3499.19,341.937L3499.14,342.032L3499.04,342.127L3498.95,342.174L3498.85,342.269L3498.81,342.364L3498.71,342.459L3498.66,342.554L3498.57,342.601L3498.47,342.696L3498.43,342.791L3498.33,342.886L3498.28,342.981L3498.19,343.076L3498.14,343.171L3498.05,343.266L3498,343.361L3497.95,343.456L3497.86,343.551L3497.81,343.645L3497.76,343.74L3497.67,343.835L3497.62,343.93L3497.57,344.025L3497.53,344.12L3497.43,344.215L3497.38,344.31L3497.34,344.405L3497.29,344.547L3497.24,344.642L3497.19,344.737L3497.15,344.832L3497.1,344.927L3497.05,345.069L3497,345.164L3496.96,345.259L3496.91,345.354L3496.86,345.496L3496.81,345.591L3496.77,345.686L3496.72,345.828L3496.72,345.923L3496.67,346.018L3496.62,346.16L3496.58,346.255L3496.58,346.398L3496.53,346.493L3496.53,346.587L3496.48,346.73L3496.43,346.825L3496.43,346.967L3496.39,347.062L3496.39,347.299L3496.34,347.442L3496.34,347.537L3496.29,347.679L3496.29,348.011L3496.24,348.154L3496.24,349.482C3496.39,351.902 3497.43,354.038 3499.04,355.651C3500.75,357.359 3503.17,358.451 3505.83,358.451C3508.44,358.451 3510.86,357.359 3512.57,355.651C3514.32,353.895 3515.37,351.523 3515.37,348.865C3515.37,346.255 3514.32,343.835 3512.57,342.127C3511.19,340.751 3509.44,339.802 3507.44,339.47ZM3492.21,358.451L3492.21,344.073L3484.9,344.073L3484.9,358.451L3492.21,358.451ZM3486.56,342.079L3490.5,342.079L3490.5,339.517L3486.56,339.517L3486.56,342.079ZM3487.13,337.572L3489.98,337.572L3489.98,328.033L3487.13,330.548L3487.13,337.572ZM3491.88,325.613L3507.59,325.613C3508.11,325.613 3508.53,326.088 3508.53,326.61L3508.53,337.666C3510.62,338.188 3512.47,339.28 3513.94,340.751C3516.03,342.839 3517.31,345.686 3517.31,348.865C3517.31,352.045 3516.03,354.939 3513.94,357.027C3511.86,359.115 3509.01,360.396 3505.83,360.396C3502.75,360.396 3499.95,359.21 3497.9,357.264L3494.16,357.264L3494.16,359.447C3494.16,359.969 3493.73,360.396 3493.21,360.396L3483.91,360.396C3483.38,360.396 3482.96,359.969 3482.96,359.447L3482.96,343.076C3482.96,342.554 3483.38,342.079 3483.91,342.079L3484.62,342.079L3484.62,338.568C3484.62,338.188 3484.86,337.856 3485.19,337.666L3485.19,330.074C3485.19,329.789 3485.33,329.504 3485.57,329.315L3490.31,325.139C3490.69,324.759 3491.31,324.807 3491.69,325.234C3491.78,325.328 3491.88,325.471 3491.88,325.613Z" style="fill-rule:nonzero;"/>
    </g>
</svg>
