<svg width="100%" height="100%" viewBox="0 0 44 31" version="1.1" xmlns="http://www.w3.org/2000/svg" xmlns:xlink="http://www.w3.org/1999/xlink" xml:space="preserve" xmlns:serif="http://www.serif.com/" style="fill-rule:evenodd;clip-rule:evenodd;stroke-linejoin:round;stroke-miterlimit:2;">
    <g transform="matrix(1,0,0,1,-3475.93,-707.657)">
        <path d="M3514.23,709.603L3481.15,709.603L3481.15,730.007L3514.23,730.007L3514.23,709.603ZM3515.32,737.837L3480.06,737.837C3478.92,737.837 3477.93,737.363 3477.17,736.603C3476.41,735.844 3475.93,734.848 3475.93,733.709C3475.93,733.139 3476.41,732.712 3476.93,732.712L3518.45,732.712C3519.02,732.712 3519.45,733.139 3519.45,733.709C3519.45,734.848 3518.97,735.844 3518.21,736.603C3517.46,737.363 3516.46,737.837 3515.32,737.837ZM3480.06,735.844L3515.32,735.844C3515.89,735.844 3516.46,735.607 3516.84,735.227C3517.03,735.085 3517.12,734.895 3517.27,734.658L3478.12,734.658C3478.26,734.895 3478.35,735.085 3478.54,735.227C3478.92,735.607 3479.49,735.844 3480.06,735.844ZM3511.62,712.165L3483.76,712.165L3483.76,725.784L3511.62,725.784L3511.62,712.165ZM3482.81,710.172L3512.57,710.172C3513.14,710.172 3513.56,710.647 3513.56,711.169L3513.56,726.733C3513.56,727.303 3513.14,727.73 3512.57,727.73L3482.81,727.73C3482.25,727.73 3481.82,727.303 3481.82,726.733L3481.82,711.169C3481.82,710.647 3482.25,710.172 3482.81,710.172ZM3480.21,707.657L3515.18,707.657C3515.75,707.657 3516.17,708.084 3516.17,708.653L3516.17,730.956C3516.17,731.526 3515.75,731.953 3515.18,731.953L3480.21,731.953C3479.64,731.953 3479.21,731.526 3479.21,730.956L3479.21,708.653C3479.21,708.084 3479.64,707.657 3480.21,707.657Z" style="fill-rule:nonzero;"/>
    </g>
</svg>
