<svg width="100%" height="100%" viewBox="0 0 36 32" version="1.1" xmlns="http://www.w3.org/2000/svg" xmlns:xlink="http://www.w3.org/1999/xlink" xml:space="preserve" xmlns:serif="http://www.serif.com/" style="fill-rule:evenodd;clip-rule:evenodd;stroke-linejoin:round;stroke-miterlimit:2;">
    <g transform="matrix(1,0,0,1,-3648.04,-550.445)">
        <path d="M3657.53,556.662L3653.83,556.662C3652.74,556.662 3651.79,557.089 3651.13,557.753C3650.42,558.465 3649.99,559.414 3649.99,560.458L3649.99,576.45C3649.99,577.494 3650.42,578.443 3651.13,579.107C3651.79,579.819 3652.74,580.246 3653.83,580.246L3677.99,580.246C3679.03,580.246 3679.98,579.819 3680.64,579.107C3681.36,578.443 3681.78,577.494 3681.78,576.45L3681.78,560.458C3681.78,559.414 3681.36,558.465 3680.64,557.753C3679.98,557.089 3679.03,556.662 3677.99,556.662L3674.29,556.662C3673.91,556.662 3673.53,556.424 3673.38,556.045L3672.58,554.052C3672.34,553.53 3672.15,553.055 3671.86,552.723C3671.72,552.533 3671.49,552.391 3671.2,552.391L3660.76,552.391C3660.24,552.391 3659.86,553.15 3659.48,553.909L3658.48,556.045C3658.34,556.377 3657.96,556.662 3657.53,556.662ZM3670.82,563.115C3669.54,561.882 3667.78,561.122 3665.89,561.122C3663.99,561.122 3662.23,561.882 3661,563.115C3659.72,564.397 3658.96,566.152 3658.96,568.05C3658.96,569.949 3659.72,571.704 3661,572.938C3662.23,574.219 3663.99,574.978 3665.89,574.978C3667.78,574.978 3669.54,574.219 3670.82,572.938C3672.06,571.704 3672.81,569.949 3672.81,568.05C3672.81,566.152 3672.06,564.397 3670.82,563.115ZM3665.89,559.129C3668.35,559.129 3670.58,560.126 3672.2,561.739C3673.81,563.353 3674.81,565.583 3674.81,568.05C3674.81,570.518 3673.81,572.748 3672.2,574.362C3670.58,575.975 3668.35,576.972 3665.89,576.972C3663.42,576.972 3661.19,575.975 3659.58,574.362C3657.96,572.748 3656.97,570.518 3656.97,568.05C3656.97,565.583 3657.96,563.353 3659.58,561.739C3661.19,560.126 3663.42,559.129 3665.89,559.129ZM3653.6,560.41C3653.03,560.41 3652.6,559.983 3652.6,559.414C3652.6,558.892 3653.03,558.465 3653.6,558.465L3656.25,558.465C3656.78,558.465 3657.25,558.892 3657.25,559.414C3657.25,559.983 3656.78,560.41 3656.25,560.41L3653.6,560.41ZM3668.59,565.346C3667.93,564.634 3666.93,564.207 3665.89,564.207C3664.84,564.207 3663.89,564.634 3663.18,565.346C3662.47,566.01 3662.04,567.006 3662.04,568.05C3662.04,569.094 3662.47,570.091 3663.18,570.755C3663.89,571.467 3664.84,571.894 3665.89,571.894C3666.93,571.894 3667.93,571.467 3668.59,570.755C3669.3,570.091 3669.73,569.094 3669.73,568.05C3669.73,567.006 3669.3,566.01 3668.59,565.346ZM3665.89,562.261C3667.5,562.261 3668.92,562.926 3669.97,563.969C3671.01,565.013 3671.68,566.437 3671.68,568.05C3671.68,569.664 3671.01,571.087 3669.97,572.131C3668.92,573.175 3667.5,573.84 3665.89,573.84C3664.27,573.84 3662.85,573.175 3661.81,572.131C3660.76,571.087 3660.1,569.664 3660.1,568.05C3660.1,566.437 3660.76,565.013 3661.81,563.969C3662.85,562.926 3664.27,562.261 3665.89,562.261ZM3653.83,554.716L3656.97,554.716L3657.72,553.055C3658.39,551.727 3659.01,550.445 3660.76,550.445L3671.2,550.445C3672.15,550.445 3672.86,550.872 3673.38,551.489C3673.81,552.011 3674.1,552.628 3674.38,553.293L3674.95,554.716L3677.99,554.716C3679.55,554.716 3680.98,555.333 3682.02,556.377C3683.06,557.421 3683.73,558.892 3683.73,560.458L3683.73,576.45C3683.73,578.016 3683.06,579.487 3682.02,580.53C3680.98,581.574 3679.55,582.191 3677.99,582.191L3653.83,582.191C3652.22,582.191 3650.8,581.574 3649.75,580.53C3648.71,579.487 3648.04,578.016 3648.04,576.45L3648.04,560.458C3648.04,558.892 3648.71,557.421 3649.75,556.377C3650.8,555.333 3652.22,554.716 3653.83,554.716Z" style="fill-rule:nonzero;"/>
    </g>
</svg>
