<svg width="100%" height="100%" viewBox="0 0 24 40" version="1.1" xmlns="http://www.w3.org/2000/svg" xmlns:xlink="http://www.w3.org/1999/xlink" xml:space="preserve" xmlns:serif="http://www.serif.com/" style="fill-rule:evenodd;clip-rule:evenodd;stroke-linejoin:round;stroke-miterlimit:2;">
    <g transform="matrix(1,0,0,1,-3888.82,-859.554)">
        <path d="M3909.27,861.499L3891.76,861.499C3891.47,861.499 3891.24,861.594 3891.05,861.784C3890.91,861.974 3890.76,862.211 3890.76,862.448L3890.76,895.855C3890.76,896.14 3890.91,896.377 3891.05,896.52L3891.05,896.567C3891.24,896.71 3891.47,896.852 3891.76,896.852L3909.27,896.852C3909.55,896.852 3909.74,896.757 3909.93,896.567L3909.98,896.52C3910.12,896.377 3910.27,896.14 3910.27,895.855L3910.27,862.448C3910.27,862.211 3910.17,861.974 3910.03,861.832L3909.98,861.784C3909.79,861.594 3909.55,861.499 3909.27,861.499ZM3907.28,864.394L3893.8,864.394L3893.8,890.303L3907.28,890.303L3907.28,864.394ZM3892.8,862.448L3908.23,862.448C3908.79,862.448 3909.22,862.876 3909.22,863.445L3909.22,891.3C3909.22,891.822 3908.79,892.249 3908.23,892.249L3892.8,892.249C3892.28,892.249 3891.81,891.822 3891.81,891.3L3891.81,863.445C3891.81,862.876 3892.28,862.448 3892.8,862.448ZM3900.54,892.866C3901.44,892.866 3902.15,893.578 3902.15,894.432C3902.15,895.333 3901.44,896.045 3900.54,896.045C3899.64,896.045 3898.88,895.333 3898.88,894.432C3898.88,893.578 3899.64,892.866 3900.54,892.866ZM3891.76,859.554L3909.27,859.554C3910.08,859.554 3910.84,859.886 3911.36,860.408L3911.4,860.455C3911.93,860.977 3912.21,861.689 3912.21,862.448L3912.21,895.855C3912.21,896.662 3911.88,897.374 3911.36,897.943L3911.26,897.991C3910.74,898.465 3910.03,898.797 3909.27,898.797L3891.76,898.797C3890.95,898.797 3890.24,898.465 3889.67,897.943L3889.67,897.896C3889.15,897.374 3888.82,896.662 3888.82,895.855L3888.82,862.448C3888.82,861.642 3889.15,860.93 3889.67,860.408C3890.24,859.886 3890.95,859.554 3891.76,859.554Z" style="fill-rule:nonzero;"/>
    </g>
</svg>
