<svg width="100%" height="100%" viewBox="0 0 38 33" version="1.1" xmlns="http://www.w3.org/2000/svg" xmlns:xlink="http://www.w3.org/1999/xlink" xml:space="preserve" xmlns:serif="http://www.serif.com/" style="fill-rule:evenodd;clip-rule:evenodd;stroke-linejoin:round;stroke-miterlimit:2;">
    <g transform="matrix(1,0,0,1,-1955.09,-397.026)">
        <path d="M1971.88,411.124L1971.5,411.503L1972.45,412.5L1976.58,408.371C1976.06,406.948 1975.92,405.429 1976.15,404.006C1976.44,402.345 1977.2,400.731 1978.48,399.497C1979.67,398.311 1981.09,397.552 1982.61,397.22C1984.17,396.888 1985.74,396.983 1987.26,397.504C1987.4,397.552 1987.54,397.647 1987.69,397.789C1988.06,398.169 1988.06,398.786 1987.69,399.165L1983.84,403.009L1984.51,405.334L1986.83,405.951L1990.63,402.107L1990.67,402.107C1990.77,402.013 1990.86,401.965 1991.01,401.918C1991.53,401.728 1992.05,401.965 1992.24,402.487C1992.81,404.006 1992.95,405.619 1992.57,407.185C1992.24,408.703 1991.53,410.127 1990.34,411.313C1989.01,412.642 1987.4,413.401 1985.69,413.686C1984.17,413.923 1982.61,413.734 1981.18,413.117L1977.15,417.15L1985.6,425.644C1985.64,425.692 1985.69,425.739 1985.74,425.786L1987.07,427.685C1987.31,428.017 1987.31,428.491 1987.07,428.824C1986.74,429.251 1986.12,429.345 1985.69,429.061L1983.89,427.732C1983.79,427.685 1983.75,427.637 1983.7,427.542L1975.21,419.096L1966.38,427.922C1965.71,428.586 1964.91,428.918 1964.05,428.918C1963.2,428.918 1962.35,428.586 1961.68,427.922C1961.06,427.305 1960.73,426.451 1960.73,425.597C1960.73,424.742 1961.06,423.888 1961.68,423.272L1970.55,414.445L1969.56,413.449L1969.18,413.828C1968.51,414.493 1967.66,414.777 1966.81,414.777C1965.95,414.777 1965.15,414.493 1964.48,413.828L1956.03,405.382C1955.42,404.765 1955.09,403.911 1955.09,403.056C1955.09,402.202 1955.42,401.348 1956.03,400.731L1958.79,397.979C1959.4,397.362 1960.26,397.03 1961.11,397.03C1961.97,397.03 1962.82,397.362 1963.44,397.979L1971.88,406.426C1972.5,407.09 1972.83,407.897 1972.83,408.751C1972.83,409.605 1972.55,410.459 1971.88,411.124ZM1967.76,412.452L1968.85,411.361L1969.42,410.791L1970.51,409.747C1970.74,409.463 1970.89,409.131 1970.89,408.751C1970.89,408.419 1970.74,408.087 1970.51,407.802L1962.06,399.355C1961.82,399.118 1961.44,398.976 1961.11,398.976C1960.78,398.976 1960.4,399.118 1960.16,399.355L1957.41,402.107C1957.17,402.345 1957.03,402.724 1957.03,403.056C1957.03,403.389 1957.17,403.768 1957.41,404.006L1965.86,412.452C1966.14,412.69 1966.47,412.832 1966.81,412.832C1967.19,412.832 1967.52,412.69 1967.76,412.452ZM1966.14,408.893C1966.52,409.273 1966.52,409.89 1966.14,410.269C1965.76,410.649 1965.15,410.649 1964.77,410.269L1959.59,405.145C1959.21,404.717 1959.21,404.1 1959.59,403.721C1959.97,403.341 1960.59,403.341 1961.02,403.721L1966.14,408.893ZM1968.32,406.71C1968.7,407.09 1968.7,407.707 1968.32,408.087C1967.95,408.466 1967.33,408.466 1966.95,408.087L1961.78,402.962C1961.4,402.582 1961.4,401.965 1961.78,401.538C1962.16,401.158 1962.77,401.158 1963.15,401.538L1968.32,406.71ZM1978.43,409.273L1973.16,414.54C1973.07,414.683 1972.98,414.73 1972.83,414.777C1972.79,414.92 1972.69,415.015 1972.6,415.11L1963.1,424.648C1962.82,424.885 1962.68,425.265 1962.68,425.597C1962.68,425.929 1962.82,426.308 1963.1,426.546C1963.34,426.831 1963.67,426.925 1964.05,426.925C1964.39,426.925 1964.72,426.831 1965,426.546L1974.54,417.008C1974.64,416.913 1974.73,416.865 1974.87,416.818C1974.92,416.676 1974.97,416.581 1975.06,416.486L1980.28,411.266C1980.61,410.934 1981.14,410.886 1981.52,411.124C1982.7,411.74 1984.08,411.93 1985.41,411.74C1986.69,411.551 1987.92,410.934 1988.97,409.937C1989.87,409.036 1990.44,407.944 1990.67,406.758C1990.82,406.094 1990.86,405.429 1990.82,404.765L1987.83,407.754C1987.54,407.992 1987.16,408.087 1986.83,407.992L1983.41,407.09C1983.08,406.995 1982.85,406.71 1982.75,406.378L1981.85,402.962C1981.75,402.582 1981.85,402.25 1982.09,402.013L1985.08,399.023C1984.41,398.928 1983.7,398.976 1983.03,399.118C1981.9,399.403 1980.76,399.972 1979.86,400.874C1978.91,401.823 1978.29,403.056 1978.1,404.29C1977.86,405.619 1978.05,406.948 1978.62,408.181C1978.81,408.561 1978.72,408.988 1978.43,409.273Z" style="fill-rule:nonzero;"/>
    </g>
</svg>
