<?xml version="1.0" encoding="UTF-8" standalone="no"?>
<!DOCTYPE svg PUBLIC "-//W3C//DTD SVG 1.1//EN" "http://www.w3.org/Graphics/SVG/1.1/DTD/svg11.dtd">
<svg width="100%" height="100%" viewBox="0 0 217 130" version="1.1" xmlns="http://www.w3.org/2000/svg" xmlns:xlink="http://www.w3.org/1999/xlink" xml:space="preserve" xmlns:serif="http://www.serif.com/" style="fill-rule:evenodd;clip-rule:evenodd;stroke-linejoin:round;stroke-miterlimit:2;">
    <g transform="matrix(1,0,0,1,-98.3234,-29.6036)">
        <g transform="matrix(0.476559,0,0,0.476559,15.6876,-77.2977)">
            <path d="M406.557,368.393C387.918,368.393 368.228,381.08 357.034,381.08L343.695,381.08L343.695,383.875C343.695,388.776 339.667,392.817 334.752,392.817L293.584,392.817C288.67,392.817 284.641,388.795 284.641,383.875L284.641,378.887C282.25,377.971 280.543,375.645 280.543,372.942L280.543,302.975C280.543,289.836 291.172,279.073 304.254,278.846C295.129,262.084 269.043,266.897 271.681,260.785C273.902,255.639 300.489,247.098 304.254,259.627C305.304,263.112 305.41,266.342 306.773,269.076C307.627,270.781 308.871,272.34 310.584,273.883C319.395,243.635 330.572,224.319 363.979,224.319L468.438,224.319C471.451,224.319 473.914,226.781 473.914,229.795L473.914,229.797C473.914,232.811 471.451,235.274 468.438,235.274L410.808,235.274L421.766,246.233L522.143,246.233C525.154,246.233 527.617,248.698 527.617,251.711L527.617,251.713C527.617,254.725 525.154,257.19 522.143,257.19L400.787,257.19C397.771,257.19 395.311,254.725 395.311,251.713L395.311,251.711C395.311,248.698 397.771,246.233 400.787,246.233L406.268,246.233L395.311,235.274L363.979,235.274C333.725,235.274 325.221,249.645 317.571,275.918L317.037,277.746L493.68,277.746C496.693,277.746 499.156,280.209 499.156,283.223L499.156,283.225C499.156,286.239 496.693,288.701 493.68,288.701C455.404,288.701 417.131,288.705 378.859,288.705C375.85,288.705 373.382,291.168 373.382,294.182L373.382,294.184C373.382,297.198 375.85,299.662 378.859,299.662L444.46,299.662C447.471,299.662 449.934,302.125 449.934,305.139L449.934,305.141C449.934,308.153 447.471,310.617 444.46,310.617L406.557,310.617L406.557,324.565L391.643,324.565C388.632,324.565 386.17,327.028 386.17,330.041L386.17,330.043C386.17,333.057 388.632,335.52 391.643,335.52L523.148,335.52C526.164,335.52 528.623,337.983 528.623,340.996L528.623,340.998C528.623,344.012 526.164,346.475 523.148,346.475C472.037,346.475 420.932,346.479 369.824,346.479C366.812,346.479 364.346,348.942 364.346,351.955L364.346,351.957C364.346,354.971 366.812,357.434 369.824,357.434C402.771,357.434 435.717,357.436 468.664,357.436C471.677,357.436 474.141,359.901 474.141,362.912L474.141,362.914C474.141,365.928 471.677,368.393 468.664,368.393L430.221,368.393L441.178,379.35C463.652,379.35 486.123,379.352 508.598,379.352C511.611,379.352 514.073,381.815 514.073,384.828L514.073,384.83C514.073,387.844 511.611,390.307 508.598,390.307L422.85,390.307C419.836,390.307 417.373,387.844 417.373,384.83L417.373,384.828C417.373,381.815 419.836,379.352 422.85,379.352L425.682,379.352L414.723,368.393L406.557,368.393ZM398.449,379.352L403.989,379.352C407.003,379.352 409.467,381.815 409.467,384.828L409.467,384.83C409.467,387.844 407.003,390.307 403.989,390.307L398.449,390.307C395.437,390.307 392.973,387.844 392.973,384.83L392.973,384.828C392.973,381.815 395.437,379.352 398.449,379.352ZM494,357.436L498.825,357.436C501.838,357.436 504.302,359.901 504.302,362.912L504.302,362.914C504.302,365.928 501.838,368.393 498.825,368.393L494,368.393C490.986,368.393 488.523,365.928 488.523,362.914L488.523,362.912C488.523,359.901 490.986,357.436 494,357.436ZM489.447,224.319L498.567,224.319C501.581,224.319 504.045,226.781 504.045,229.795L504.045,229.797C504.045,232.811 501.581,235.274 498.567,235.274L489.447,235.274C486.434,235.274 483.971,232.811 483.971,229.797L483.971,229.795C483.971,226.781 486.434,224.319 489.447,224.319ZM466.998,299.662L475.809,299.662C478.821,299.662 481.285,302.125 481.285,305.139L481.285,305.141C481.285,308.153 478.821,310.617 475.809,310.617L466.998,310.617C463.984,310.617 461.521,308.153 461.521,305.141L461.521,305.139C461.521,302.125 463.984,299.662 466.998,299.662ZM342.034,346.479L346.012,346.479C349.025,346.479 351.488,348.942 351.488,351.955L351.488,351.957C351.488,354.971 349.025,357.434 346.012,357.434L342.034,357.434C339.021,357.434 336.558,354.971 336.558,351.957L336.558,351.955C336.558,348.942 339.021,346.479 342.034,346.479ZM347.975,330.709C346.209,314.848 315.699,297.08 295.707,298.19C290.396,329.846 336.852,333.864 347.975,330.709Z" style="fill:rgb(255,0,87);"/>
        </g>
        <g transform="matrix(1,0,0,1,-523.714,-148.949)">
            <path d="M628.245,308.188L632.725,308.188L632.725,290.364L638.933,290.364L638.933,286.428L622.037,286.428L622.037,290.364L628.245,290.364L628.245,308.188Z" style="fill-rule:nonzero;"/>
            <rect x="642.325" y="286.428" width="4.48" height="21.76" style="fill-rule:nonzero;"/>
            <path d="M662.965,301.404C665.653,300.188 667.157,298.044 667.157,294.652C667.157,289.34 663.509,286.428 657.429,286.428L651.413,286.428L651.413,308.188L655.893,308.188L655.893,302.78L657.429,302.78C657.845,302.78 658.293,302.748 658.709,302.684L662.293,308.188L667.477,308.188L662.965,301.404ZM655.893,298.876L655.893,290.364L657.301,290.364C660.885,290.364 662.549,291.58 662.549,294.652C662.549,297.724 660.949,298.876 657.301,298.876L655.893,298.876Z" style="fill-rule:nonzero;"/>
            <path d="M671.061,308.188L685.909,308.188L685.909,304.252L675.541,304.252L675.541,301.116L684.277,301.116L684.277,297.276L675.541,297.276L675.541,290.364L685.461,290.364L685.461,286.428L671.061,286.428L671.061,308.188Z" style="fill-rule:nonzero;"/>
            <path d="M696.501,308.476C700.757,308.476 703.925,306.268 703.925,302.236C703.925,298.492 701.781,296.828 697.973,295.196L696.853,294.716C694.933,293.884 694.101,293.34 694.101,291.996C694.101,290.908 694.933,290.076 696.245,290.076C697.525,290.076 698.357,290.62 699.125,291.996L702.613,289.756C701.141,287.164 699.093,286.172 696.245,286.172C692.245,286.172 689.685,288.732 689.685,292.092C689.685,295.74 691.829,297.468 695.061,298.844L696.181,299.324C698.229,300.22 699.445,300.764 699.445,302.3C699.445,303.58 698.261,304.508 696.405,304.508C694.197,304.508 692.949,303.356 691.989,301.788L688.341,303.9C689.653,306.492 692.341,308.476 696.501,308.476Z" style="fill-rule:nonzero;"/>
            <path d="M707.413,308.188L716.213,308.188C720.757,308.188 723.509,305.34 723.509,301.468C723.509,298.748 722.069,296.764 719.093,296.06C720.981,295.452 722.165,294.076 722.165,292.06C722.165,288.988 719.893,286.428 715.829,286.428L707.413,286.428L707.413,308.188ZM711.893,294.46L711.893,290.364L715.573,290.364C716.949,290.364 717.749,291.164 717.749,292.412C717.749,293.66 716.789,294.46 715.349,294.46L711.893,294.46ZM711.893,304.252L711.893,298.268L715.765,298.268C717.813,298.268 718.997,299.484 718.997,301.244C718.997,303.036 717.845,304.252 716.021,304.252L711.893,304.252Z" style="fill-rule:nonzero;"/>
            <path d="M724.853,308.188L729.173,308.188L730.197,305.724L739.029,305.724L740.053,308.188L744.757,308.188L734.805,286.236L734.421,286.236L724.853,308.188ZM731.701,301.98L733.269,298.204C733.909,296.668 734.549,294.3 734.549,294.3C734.549,294.3 735.221,296.668 735.861,298.204L737.429,301.98L731.701,301.98Z" style="fill-rule:nonzero;"/>
            <path d="M750.517,308.188L755.029,308.188L755.029,300.956L762.773,286.428L758.197,286.428L754.517,293.436C753.685,295.004 752.821,297.564 752.821,297.564C752.821,297.564 751.893,294.972 751.061,293.436L747.221,286.428L742.261,286.428L750.517,301.276L750.517,308.188Z" style="fill-rule:nonzero;"/>
            <path d="M762.933,308.38C764.373,308.38 765.621,307.26 765.621,305.66C765.621,304.092 764.373,302.972 762.933,302.972C761.461,302.972 760.213,304.092 760.213,305.66C760.213,307.26 761.461,308.38 762.933,308.38Z" style="fill-rule:nonzero;"/>
            <path d="M778.357,308.476C782.549,308.476 785.557,306.62 787.445,303.676L783.957,301.276C782.741,303.132 781.173,304.476 778.357,304.476C774.421,304.476 771.765,301.372 771.765,297.308C771.765,293.244 774.421,290.204 778.357,290.204C780.853,290.204 782.613,291.388 783.637,293.052L787.061,290.62C785.109,287.58 782.293,286.172 778.357,286.172C772.117,286.172 767.157,290.876 767.157,297.308C767.157,303.74 772.117,308.476 778.357,308.476Z" style="fill-rule:nonzero;"/>
            <path d="M800.981,308.476C807.253,308.476 812.245,303.74 812.245,297.308C812.245,290.876 807.253,286.14 800.981,286.14C794.709,286.14 789.717,290.876 789.717,297.308C789.717,303.74 794.709,308.476 800.981,308.476ZM800.981,304.476C797.013,304.476 794.325,301.372 794.325,297.308C794.325,293.244 797.013,290.14 800.981,290.14C804.949,290.14 807.637,293.244 807.637,297.308C807.637,301.372 804.949,304.476 800.981,304.476Z" style="fill-rule:nonzero;"/>
            <path d="M816.053,308.188L820.341,308.188L820.341,300.028C820.341,298.556 820.181,296.22 820.181,296.22C820.181,296.22 821.493,298.14 822.517,299.292L826.837,304.124L827.253,304.124L831.573,299.292C832.597,298.14 833.909,296.22 833.909,296.22C833.909,296.22 833.749,298.556 833.749,300.028L833.749,308.188L838.069,308.188L838.069,286.204L837.685,286.204L827.125,297.98L816.405,286.204L816.053,286.204L816.053,308.188Z" style="fill-rule:nonzero;"/>
        </g>
    </g>
</svg>
