<svg width="100%" height="100%" viewBox="0 0 40 37" version="1.1" xmlns="http://www.w3.org/2000/svg" xmlns:xlink="http://www.w3.org/1999/xlink" xml:space="preserve" xmlns:serif="http://www.serif.com/" style="fill-rule:evenodd;clip-rule:evenodd;stroke-linejoin:round;stroke-miterlimit:2;">
    <g transform="matrix(1,0,0,1,-3724.52,-861.047)">
        <path d="M3739.39,861.072C3739.72,861.025 3740.1,861.167 3740.29,861.452L3744.09,865.913L3747.88,861.452C3748.12,861.167 3748.5,860.977 3748.88,861.072L3754.67,862.116C3754.81,862.116 3755,862.211 3755.14,862.354L3763.35,870.183C3763.73,870.515 3763.78,871.038 3763.5,871.417L3759.41,877.254C3759.37,877.301 3759.37,877.349 3759.32,877.396C3758.94,877.823 3758.32,877.823 3757.9,877.444L3755.48,875.119L3755.48,896.283C3755.48,896.852 3755,897.279 3754.48,897.279L3733.7,897.279C3733.17,897.279 3732.75,896.852 3732.75,896.283L3732.75,875.119L3730.28,877.444C3730.23,877.491 3730.18,877.491 3730.18,877.538C3729.71,877.871 3729.14,877.728 3728.81,877.301L3724.73,871.465C3724.44,871.085 3724.44,870.515 3724.82,870.183L3732.98,862.401C3733.13,862.259 3733.32,862.116 3733.55,862.116L3739.34,861.072L3739.39,861.072ZM3735.64,863.73L3734.17,863.967L3726.77,870.99L3729.76,875.261L3733.03,872.129C3733.46,871.749 3734.08,871.749 3734.41,872.176C3734.6,872.366 3734.69,872.603 3734.69,872.841L3734.69,895.333L3753.48,895.333L3753.48,872.841C3753.48,872.271 3753.96,871.844 3754.48,871.844C3754.76,871.844 3755,871.987 3755.19,872.176L3758.47,875.261L3761.41,870.99L3754.01,863.967L3752.58,863.73L3744.85,872.509C3744.47,872.936 3743.85,872.983 3743.47,872.603C3743.42,872.603 3743.38,872.556 3743.38,872.509L3735.64,863.73ZM3743.33,868L3739.15,863.065L3737.87,863.303L3744.09,870.421L3750.35,863.303L3749.07,863.065L3744.85,868L3744.85,868.048L3744.8,868.048L3744.8,868.095L3744.75,868.095L3744.75,868.143L3744.7,868.143L3744.66,868.19L3744.61,868.238L3744.56,868.238L3744.51,868.285L3744.47,868.285C3744.42,868.333 3744.37,868.333 3744.32,868.333L3744.23,868.333L3744.23,868.38L3743.99,868.38L3743.95,868.333L3743.85,868.333C3743.8,868.333 3743.8,868.333 3743.76,868.285L3743.66,868.285L3743.66,868.238L3743.57,868.238C3743.57,868.19 3743.57,868.19 3743.52,868.19L3743.52,868.143L3743.47,868.143L3743.47,868.095L3743.42,868.095L3743.42,868.048L3743.38,868.048L3743.38,868L3743.33,868Z" style="fill-rule:nonzero;"/>
    </g>
</svg>
