<svg width="100%" height="100%" viewBox="0 0 36 37" version="1.1" xmlns="http://www.w3.org/2000/svg" xmlns:xlink="http://www.w3.org/1999/xlink" xml:space="preserve" xmlns:serif="http://www.serif.com/" style="fill-rule:evenodd;clip-rule:evenodd;stroke-linejoin:round;stroke-miterlimit:2;">
    <g transform="matrix(1,0,0,1,-3726.39,-626.122)">
        <path d="M3748.98,637.047L3747.12,638.945L3748.98,640.796L3750.87,638.945L3748.98,637.047ZM3728.76,654.889L3733.03,659.16L3732.22,658.306C3731.85,657.926 3731.85,657.309 3732.22,656.93L3736.02,653.181C3737.49,651.662 3739.25,650.571 3741.15,650.002C3743.04,649.385 3745.04,649.242 3747.17,649.622C3748.36,649.812 3749.64,649.859 3750.92,649.622C3752.11,649.385 3753.25,649.005 3754.39,648.341L3754.43,648.341C3756.99,646.822 3758.75,644.402 3759.46,641.745C3760.17,639.087 3759.89,636.145 3758.42,633.535L3758.42,633.488C3756.9,630.926 3754.48,629.17 3751.82,628.458C3749.12,627.699 3746.18,628.031 3743.57,629.502L3743.57,629.549C3741.57,630.688 3740.05,632.349 3739.15,634.295C3738.25,636.288 3737.92,638.565 3738.3,640.796C3738.68,642.884 3738.54,644.924 3737.92,646.775C3737.35,648.673 3736.26,650.429 3734.74,651.947L3730.99,655.696C3730.61,656.076 3729.99,656.076 3729.61,655.696L3728.76,654.889ZM3732.37,661.248L3726.67,655.554C3726.29,655.174 3726.29,654.557 3726.67,654.178L3728.05,652.801C3728.43,652.422 3729.05,652.422 3729.42,652.801L3730.28,653.655L3733.36,650.524C3734.64,649.242 3735.55,647.771 3736.07,646.205C3736.59,644.592 3736.69,642.884 3736.35,641.128C3735.93,638.518 3736.31,635.861 3737.4,633.488C3738.49,631.21 3740.24,629.217 3742.62,627.841C3745.65,626.085 3749.17,625.706 3752.3,626.56C3755.48,627.414 3758.32,629.454 3760.08,632.539L3760.13,632.586C3761.83,635.623 3762.21,639.087 3761.36,642.219C3760.51,645.399 3758.47,648.246 3755.38,650.002L3755.33,650.049C3754.01,650.808 3752.63,651.283 3751.25,651.52C3749.78,651.805 3748.26,651.805 3746.84,651.568C3745.04,651.235 3743.33,651.33 3741.72,651.852C3740.15,652.374 3738.68,653.276 3737.4,654.557L3734.26,657.642L3735.12,658.496C3735.5,658.875 3735.5,659.492 3735.12,659.872L3733.74,661.248C3733.36,661.628 3732.75,661.628 3732.37,661.248ZM3753.39,646.016C3755.24,644.877 3756.52,643.074 3757.04,641.08C3757.61,639.04 3757.37,636.762 3756.24,634.769L3756.19,634.722C3755.05,632.729 3753.2,631.4 3751.16,630.878C3749.07,630.309 3746.79,630.546 3744.8,631.685C3742.81,632.871 3741.48,634.722 3740.96,636.762C3740.39,638.803 3740.62,641.033 3741.72,642.979L3741.76,643.074C3742.9,645.114 3744.75,646.443 3746.84,646.965C3748.88,647.534 3751.06,647.297 3753.06,646.205L3753.25,646.016L3753.39,646.016ZM3754.15,647.819L3753.91,647.961C3751.49,649.29 3748.79,649.527 3746.32,648.863C3743.85,648.199 3741.57,646.585 3740.15,644.212L3740.15,644.165L3740.05,644.023C3738.68,641.603 3738.39,638.803 3739.06,636.24C3739.72,633.725 3741.38,631.448 3743.85,630.024L3743.9,629.977C3746.32,628.6 3749.12,628.316 3751.68,628.98C3754.2,629.644 3756.47,631.305 3757.9,633.773C3759.32,636.24 3759.6,639.04 3758.94,641.603C3758.28,644.117 3756.62,646.443 3754.15,647.819ZM3748.03,657.926L3748.03,658.069L3747.98,658.116L3747.98,658.353L3747.93,658.496L3747.93,658.638L3747.88,658.686L3747.88,658.828L3747.84,658.875L3747.84,658.97L3747.79,659.018L3747.79,659.113L3747.74,659.207L3747.74,659.255L3747.69,659.302L3747.69,659.397L3747.65,659.492L3747.6,659.587L3747.6,659.635L3747.55,659.682L3747.55,659.73L3747.5,659.824L3747.5,659.872L3747.46,659.872L3747.46,659.919L3748.03,657.926ZM3743.76,660.773C3743.8,660.726 3743.85,660.679 3743.9,660.631C3743.95,660.536 3743.99,660.441 3743.99,660.346C3743.95,660.204 3743.85,660.014 3743.66,659.777C3743.47,659.54 3743.19,659.35 3742.85,659.113C3742.28,658.686 3741.95,658.164 3741.81,657.594C3741.62,656.977 3741.67,656.36 3741.9,655.744C3742.14,655.221 3742.52,654.699 3743.04,654.272C3743.14,654.178 3743.23,654.13 3743.38,654.035C3742.52,653.845 3741.62,653.94 3740.81,654.415C3739.96,654.889 3739.39,655.696 3739.15,656.55C3738.92,657.404 3739.01,658.401 3739.48,659.207L3739.53,659.255C3740.01,660.062 3740.77,660.631 3741.67,660.868C3742.33,661.058 3743.09,661.011 3743.76,660.773ZM3747.46,659.919C3746.98,660.868 3746.27,661.675 3745.32,662.197L3745.27,662.197C3745.23,662.245 3745.18,662.292 3745.13,662.292L3745.08,662.339C3744.99,662.387 3744.89,662.434 3744.85,662.434L3744.66,662.529C3743.52,663.004 3742.28,663.051 3741.15,662.767C3739.86,662.387 3738.68,661.58 3737.92,660.346L3737.82,660.204C3737.06,658.875 3736.92,657.404 3737.25,656.076C3737.63,654.747 3738.44,653.561 3739.72,652.801L3739.82,652.706C3741.15,651.995 3742.62,651.805 3743.99,652.185C3745.32,652.564 3746.56,653.418 3747.31,654.747L3747.31,654.794L3747.36,654.842L3747.41,654.937L3747.46,654.984L3747.46,655.032L3747.5,655.127L3747.5,655.174L3747.55,655.221L3747.6,655.316L3747.6,655.364L3747.65,655.411L3747.65,655.506L3747.69,655.554L3747.69,655.601L3747.74,655.696L3747.74,655.744L3747.79,655.791L3747.79,655.886L3747.84,655.933L3747.84,656.076L3747.88,656.123L3747.88,656.265L3747.93,656.313L3747.93,656.55L3747.98,656.598L3747.98,656.882L3748.03,656.93L3748.03,657.784L3747.46,659.919ZM3745.61,659.207C3745.7,659.065 3745.8,658.923 3745.84,658.78L3745.84,658.733L3745.89,658.638L3745.89,658.543L3745.94,658.543L3745.94,658.401L3745.99,658.353L3745.99,658.211L3746.03,658.164L3746.03,657.926L3746.08,657.879L3746.08,657.214C3746.08,657.167 3746.08,657.072 3746.03,657.025L3746.03,656.787L3745.99,656.74L3745.99,656.55L3745.94,656.503C3745.94,656.455 3745.94,656.408 3745.89,656.36L3745.89,656.313L3745.84,656.218L3745.84,656.171L3745.8,656.123L3745.8,656.028C3745.75,655.933 3745.7,655.886 3745.65,655.791L3745.61,655.696C3745.51,655.554 3745.42,655.411 3745.32,655.269C3744.94,655.364 3744.56,655.554 3744.28,655.791C3744.04,655.981 3743.85,656.218 3743.71,656.503C3743.66,656.693 3743.61,656.882 3743.66,657.072C3743.71,657.214 3743.8,657.404 3743.99,657.499C3744.47,657.831 3744.8,658.164 3745.08,658.448C3745.32,658.733 3745.51,658.97 3745.61,659.207ZM3747.22,645.351C3746.84,645.731 3746.22,645.731 3745.84,645.351C3745.42,644.972 3745.42,644.355 3745.84,643.975L3747.6,642.172L3745.75,640.321L3743.95,642.077C3743.57,642.504 3742.95,642.504 3742.57,642.077C3742.19,641.697 3742.19,641.08 3742.57,640.701L3744.37,638.945L3742.57,637.142C3742.19,636.762 3742.19,636.145 3742.57,635.766C3742.95,635.386 3743.57,635.386 3743.95,635.766L3745.75,637.522L3747.6,635.671L3745.84,633.868C3745.42,633.488 3745.42,632.871 3745.84,632.492C3746.22,632.112 3746.84,632.112 3747.22,632.492L3748.98,634.295L3750.78,632.492C3751.16,632.112 3751.78,632.112 3752.15,632.492C3752.53,632.871 3752.53,633.488 3752.15,633.868L3750.4,635.671L3752.25,637.522L3754.05,635.766C3754.43,635.386 3755.05,635.386 3755.43,635.766C3755.81,636.145 3755.81,636.762 3755.43,637.142L3753.63,638.945L3755.43,640.701C3755.81,641.08 3755.81,641.697 3755.43,642.077C3755.05,642.504 3754.43,642.504 3754.05,642.077L3752.25,640.321L3750.4,642.172L3752.15,643.975C3752.53,644.355 3752.53,644.972 3752.15,645.351C3751.78,645.731 3751.16,645.731 3750.78,645.351L3748.98,643.548L3747.22,645.351Z" style="fill-rule:nonzero;"/>
    </g>
</svg>
