<svg width="100%" height="100%" viewBox="0 0 40 24" version="1.1" xmlns="http://www.w3.org/2000/svg" xmlns:xlink="http://www.w3.org/1999/xlink" xml:space="preserve" xmlns:serif="http://www.serif.com/" style="fill-rule:evenodd;clip-rule:evenodd;stroke-linejoin:round;stroke-miterlimit:2;">
    <g transform="matrix(1,0,0,1,-3153.54,-554.479)">
        <path d="M3182.87,556.424L3163.27,556.424C3162.32,556.424 3161.42,556.899 3160.61,557.611C3158.95,559.129 3157.67,561.882 3156.82,564.824C3155.92,567.861 3155.49,570.992 3155.49,573.27C3155.49,574.599 3155.63,575.548 3155.82,575.785L3155.87,575.833C3156.15,576.023 3156.82,576.165 3157.48,576.212C3158.15,576.212 3158.76,576.117 3158.95,575.928L3164.12,569.854C3164.41,569.521 3164.74,569.284 3165.12,569.094C3165.55,568.952 3165.98,568.857 3166.4,568.857L3179.78,568.857C3180.21,568.857 3180.64,568.952 3181.02,569.094C3181.4,569.237 3181.78,569.521 3182.06,569.854L3187.19,575.928C3187.42,576.117 3187.99,576.212 3188.66,576.212C3189.37,576.165 3189.99,576.023 3190.27,575.833L3190.32,575.785C3190.56,575.548 3190.65,574.599 3190.65,573.27C3190.65,570.992 3190.22,567.861 3189.32,564.824C3188.47,561.882 3187.19,559.129 3185.53,557.611C3184.72,556.899 3183.86,556.424 3182.87,556.424ZM3168.49,561.502C3169.01,561.502 3169.49,561.929 3169.49,562.451C3169.49,563.02 3169.06,563.447 3168.54,563.447L3166.35,563.495L3166.4,565.63C3166.4,566.2 3165.98,566.627 3165.45,566.627C3164.88,566.627 3164.46,566.2 3164.46,565.678L3164.41,563.495L3162.27,563.542C3161.7,563.542 3161.28,563.115 3161.28,562.593C3161.28,562.024 3161.7,561.597 3162.23,561.597L3164.41,561.549L3164.36,559.414C3164.36,558.892 3164.79,558.418 3165.31,558.418C3165.88,558.418 3166.31,558.845 3166.31,559.367L3166.35,561.549L3168.49,561.502ZM3180.5,558.512C3181.3,558.512 3181.92,559.129 3181.92,559.889C3181.92,560.648 3181.3,561.265 3180.5,561.265C3179.74,561.265 3179.12,560.648 3179.12,559.889C3179.12,559.129 3179.74,558.512 3180.5,558.512ZM3177.89,561.122C3178.65,561.122 3179.26,561.739 3179.26,562.546C3179.26,563.305 3178.65,563.922 3177.89,563.922C3177.13,563.922 3176.51,563.305 3176.51,562.546C3176.51,561.739 3177.13,561.122 3177.89,561.122ZM3183.15,561.122C3183.91,561.122 3184.53,561.739 3184.53,562.546C3184.53,563.305 3183.91,563.922 3183.15,563.922C3182.39,563.922 3181.78,563.305 3181.78,562.546C3181.78,561.739 3182.39,561.122 3183.15,561.122ZM3180.5,563.78C3181.3,563.78 3181.92,564.397 3181.92,565.156C3181.92,565.915 3181.3,566.532 3180.5,566.532C3179.74,566.532 3179.12,565.915 3179.12,565.156C3179.12,564.397 3179.74,563.78 3180.5,563.78ZM3163.27,554.479L3182.87,554.479C3184.39,554.479 3185.72,555.096 3186.85,556.187C3188.8,557.943 3190.27,561.027 3191.22,564.302C3192.12,567.481 3192.6,570.85 3192.6,573.27C3192.6,575.074 3192.31,576.45 3191.74,577.114L3191.69,577.114C3191.65,577.209 3191.6,577.256 3191.5,577.304L3191.55,577.304C3190.94,577.826 3189.8,578.11 3188.71,578.158C3187.61,578.158 3186.47,577.921 3185.86,577.351C3185.81,577.304 3185.76,577.256 3185.72,577.209L3180.54,571.087C3180.5,570.992 3180.4,570.945 3180.26,570.898C3180.12,570.85 3179.97,570.803 3179.78,570.803L3166.4,570.803C3166.17,570.803 3166.02,570.85 3165.88,570.898C3165.79,570.945 3165.69,570.992 3165.6,571.087L3160.42,577.209C3160.38,577.256 3160.33,577.304 3160.28,577.351C3159.66,577.921 3158.53,578.158 3157.43,578.158C3156.34,578.11 3155.25,577.826 3154.63,577.304C3154.54,577.256 3154.49,577.209 3154.44,577.114L3154.4,577.114C3153.83,576.45 3153.54,575.074 3153.54,573.27C3153.54,570.85 3154.02,567.481 3154.97,564.302C3155.92,561.027 3157.34,557.943 3159.28,556.187C3160.47,555.096 3161.75,554.479 3163.27,554.479Z" style="fill-rule:nonzero;"/>
    </g>
</svg>
