<svg width="690" height="180" viewBox="0 0 690 180" fill="none" xmlns="http://www.w3.org/2000/svg">
<path d="M180.898 0.0603529C180.898 0.0603529 114.256 -2.22051 55.1504 21.2611C97.7324 11.0997 159.48 9.35209 159.48 9.35209L180.898 0.0603529Z" fill="#ED1C24"/>
<path d="M174.899 171.668C174.899 171.668 120.334 164.251 69.8184 178.63C105.648 173.822 156.529 177.522 156.529 177.522L174.899 171.668Z" fill="#ED1C24"/>
<path d="M141.284 48.3691C141.284 48.3691 78.1286 49.4357 22.8418 65.3199C62.7819 58.8013 121.26 54.6949 121.26 54.6949L141.284 48.3691Z" fill="#ED1C24"/>
<path d="M109.425 131.051C109.425 131.051 61.5264 135.768 0 151.107C44.4977 144.982 109.839 139.822 109.839 139.822L109.425 131.051Z" fill="#ED1C24"/>
<path d="M154.988 17.2414C154.988 17.2414 111.734 15.7604 73.373 31.0005C101.01 24.404 141.086 23.2717 141.086 23.2717L154.988 17.2414Z" fill="#D1D3D4"/>
<path d="M124.28 116.447C124.28 116.447 81.0747 114.371 43.1406 124.57C70.5728 120.41 110.546 120.513 110.546 120.513L124.28 116.447Z" fill="#D1D3D4"/>
<path d="M131.744 67.0465C131.744 67.0465 78.6644 64.5482 32.0293 77.4828C65.7421 72.1785 114.855 72.199 114.855 72.199L131.744 67.0465Z" fill="#D1D3D4"/>
<path d="M200.349 101.879C189.708 137.343 162.366 152.744 162.366 152.744C162.366 152.744 143.93 125.672 154.083 91.8324C167.773 46.2188 200.973 39.8029 200.973 39.8029C208.23 52.0154 207.824 76.9739 200.349 101.879ZM238.123 27.8816C238.123 27.8816 238.123 27.8775 238.119 27.8734C238.029 27.7913 237.939 27.7133 237.848 27.6313C237.725 27.5287 237.606 27.4221 237.487 27.3196C214.35 7.09517 192.817 1.79495 192.817 1.79495C160.823 -7.80445 123.209 23.3198 108.81 71.3127C94.411 119.302 108.671 165.994 140.669 175.593C142.753 176.217 144.861 176.668 146.986 176.951L146.982 176.955C146.982 176.955 167.834 180.25 188.875 178.74C189.642 178.699 190.413 178.637 191.18 178.555C191.213 178.551 191.242 178.547 191.275 178.547V178.543C216.672 175.741 242.246 150.323 253.043 114.35C263.594 79.1809 256.801 44.6641 238.123 27.8816Z" fill="#231F20"/>
<path d="M208.712 104.427C208.712 104.427 208.581 104.813 208.323 105.556C208.06 106.298 207.695 107.406 207.17 108.833C206.103 111.68 204.479 115.848 201.997 120.956C199.503 126.051 196.188 132.13 191.516 138.526C186.855 144.897 180.907 151.702 173.076 157.569C171.135 159.05 169.023 160.391 166.84 161.7C166.282 162.003 165.72 162.311 165.154 162.623C164.871 162.775 164.592 162.935 164.305 163.078L163.427 163.501C162.84 163.776 162.258 164.071 161.659 164.333C161.052 164.584 160.441 164.834 159.829 165.084C159.222 165.351 158.582 165.544 157.95 165.765C157.319 165.974 156.691 166.212 156.035 166.376C155.382 166.553 154.73 166.733 154.074 166.914C153.405 167.049 152.737 167.189 152.064 167.324C149.36 167.808 146.558 168.026 143.72 167.866C143.014 167.792 142.304 167.718 141.595 167.648C141.238 167.623 140.881 167.55 140.52 167.484L139.441 167.287C138.703 167.172 138.046 166.975 137.369 166.795L136.352 166.52C136.352 166.52 136.216 166.483 136.184 166.471L136.057 166.422L135.798 166.331L135.285 166.147C132.537 165.179 129.87 163.833 127.466 162.073C125.05 160.338 122.839 158.274 120.882 155.977C120.406 155.386 119.898 154.82 119.454 154.209C119.011 153.594 118.564 152.978 118.117 152.363C117.297 151.083 116.46 149.803 115.746 148.449C114.286 145.762 112.997 142.948 111.988 140.023C110.971 137.102 110.064 134.112 109.424 131.051C109.338 130.67 109.244 130.288 109.166 129.903L108.948 128.746C108.813 127.975 108.649 127.208 108.53 126.428C108.308 124.873 108.054 123.314 107.906 121.743C107.541 118.601 107.39 115.43 107.328 112.242C107.25 105.876 107.64 99.4431 108.608 93.0681C108.858 91.4764 109.092 89.8806 109.408 88.2971C109.56 87.5054 109.699 86.7095 109.863 85.9178L110.38 83.5467C110.704 81.9673 111.143 80.392 111.533 78.8085C111.722 78.0085 111.96 77.2619 112.173 76.4866L112.833 74.1565C116.603 61.7675 122.055 49.8175 129.353 39.2089C131.191 36.5711 133.103 33.9867 135.179 31.5499C136.188 30.3028 137.279 29.1336 138.346 27.9439C138.887 27.3573 139.457 26.7953 140.011 26.221L140.844 25.3677C141.127 25.0888 141.422 24.818 141.71 24.5432C143.995 22.3197 146.468 20.3013 149.016 18.4143C151.559 16.5149 154.279 14.8658 157.093 13.4177C162.697 10.4927 168.961 8.70412 175.283 8.58105C176.075 8.58926 176.862 8.59334 177.65 8.61386C178.433 8.6877 179.217 8.76155 180 8.83129C180.788 8.92154 181.617 9.09794 182.417 9.23741L183.02 9.34818C183.213 9.38921 183.368 9.43842 183.545 9.48354L184.566 9.7502L185.075 9.88561L185.329 9.95532L185.457 9.98817C185.473 9.98817 185.785 10.0866 185.719 10.0661L186.814 10.4558C187.541 10.7183 188.275 10.9604 188.968 11.2968L190.014 11.7727C190.363 11.9327 190.716 12.0844 191.044 12.2772C191.708 12.6505 192.373 13.0197 193.033 13.3889C195.614 14.9806 197.911 16.8882 199.946 18.9558C200.438 19.4809 200.934 20.0101 201.427 20.5311C201.878 21.0849 202.329 21.6346 202.781 22.1843C203.244 22.7217 203.63 23.3084 204.044 23.8704C204.45 24.4447 204.877 24.9985 205.23 25.5892C205.591 26.1758 205.956 26.7584 206.317 27.3409C206.661 27.9275 206.973 28.5306 207.301 29.1213L207.785 30.0074C207.941 30.3069 208.077 30.6105 208.22 30.9099C208.507 31.5089 208.795 32.1078 209.078 32.7027C209.344 33.3057 209.582 33.9128 209.837 34.5117C210.083 35.1107 210.345 35.7055 210.55 36.3127C210.977 37.5228 211.42 38.7166 211.761 39.9227C213.229 44.7142 214.123 49.4154 214.64 53.8952C215.165 58.379 215.309 62.6454 215.264 66.6369C215.157 74.6324 214.193 81.5201 213.164 87.1239C212.113 92.7276 210.936 97.0309 210.087 100.001C209.66 101.461 209.303 102.532 209.074 103.279C208.844 104.013 208.725 104.395 208.725 104.395L208.712 104.427ZM204.331 103.082C204.331 103.082 204.442 102.7 204.651 101.954C204.856 101.215 205.197 100.099 205.574 98.676C206.296 95.87 207.33 91.6651 208.2 86.2583C209.057 80.8555 209.775 74.2262 209.64 66.6452C209.574 62.8587 209.299 58.8384 208.708 54.6623C208.109 50.4861 207.191 46.1541 205.788 41.8057C205.098 39.6273 204.233 37.4736 203.289 35.3199C203.035 34.7948 202.776 34.2615 202.518 33.7323C202.387 33.4656 202.264 33.1949 202.128 32.9324L201.693 32.157C201.402 31.6401 201.123 31.111 200.82 30.5982C200.5 30.0936 200.18 29.589 199.86 29.0844C199.556 28.5634 199.187 28.0916 198.842 27.5952C198.485 27.1112 198.157 26.5984 197.763 26.143C197.382 25.6754 197 25.2077 196.615 24.736C196.205 24.2929 195.79 23.8499 195.372 23.4068C193.673 21.6715 191.782 20.1044 189.711 18.7712C189.177 18.4676 188.64 18.1599 188.102 17.8523C187.84 17.6882 187.557 17.5651 187.278 17.4338L186.433 17.04C185.879 16.7529 185.288 16.556 184.702 16.3385L183.82 16.0103C183.672 15.9652 183.906 16.0267 183.832 16.0062L183.705 15.9734L183.451 15.8996L182.942 15.7601L181.924 15.477C181.756 15.436 181.576 15.3786 181.42 15.3458L180.981 15.2678C180.386 15.1694 179.824 15.0299 179.2 14.952C178.565 14.8822 177.925 14.8166 177.285 14.7509C176.641 14.7304 175.993 14.714 175.34 14.6976C172.739 14.714 170.089 15.0832 167.46 15.756C166.807 15.9488 166.143 16.0883 165.495 16.3098C164.842 16.5313 164.19 16.7528 163.538 16.9744C162.25 17.4954 160.949 18 159.69 18.6399C157.159 19.8788 154.669 21.3146 152.302 23.0089C149.935 24.6867 147.613 26.5082 145.434 28.5347C145.159 28.7849 144.876 29.0269 144.606 29.2813L143.802 30.0607C143.268 30.5858 142.719 31.0904 142.198 31.6319C141.16 32.719 140.101 33.7939 139.117 34.9425C137.09 37.1906 135.203 39.5986 133.382 42.0641C126.137 51.9917 120.517 63.3879 116.538 75.3256C112.616 87.2797 110.298 99.8164 110.191 112.23C110.196 115.327 110.286 118.42 110.585 121.472C110.696 123.007 110.918 124.521 111.106 126.034C111.209 126.789 111.352 127.54 111.471 128.291L111.66 129.415C111.73 129.788 111.812 130.157 111.89 130.526C112.46 133.505 113.268 136.413 114.232 139.236C115.176 142.066 116.386 144.774 117.756 147.358C118.425 148.659 119.208 149.885 119.979 151.112C120.398 151.698 120.812 152.289 121.231 152.876C121.645 153.462 122.121 153.996 122.564 154.558C124.398 156.748 126.445 158.713 128.701 160.35C130.949 161.999 133.431 163.25 135.987 164.149L136.467 164.321L136.705 164.407L136.824 164.452C136.873 164.469 136.828 164.452 136.906 164.477L137.919 164.752C138.596 164.932 139.277 165.137 139.913 165.224L140.885 165.4C141.205 165.457 141.525 165.527 141.861 165.548C142.526 165.609 143.186 165.675 143.843 165.736C149.143 165.966 154.324 164.863 158.956 162.914C159.534 162.664 160.108 162.418 160.679 162.167C161.245 161.905 161.794 161.61 162.348 161.339L163.177 160.92C163.448 160.777 163.71 160.617 163.981 160.465C164.51 160.157 165.043 159.854 165.569 159.55C167.636 158.262 169.613 156.908 171.443 155.436C175.127 152.527 178.355 149.356 181.19 146.14C184.029 142.919 186.482 139.662 188.636 136.499C192.931 130.157 195.999 124.205 198.28 119.204C200.545 114.199 202.005 110.126 202.965 107.344C203.437 105.953 203.757 104.87 203.995 104.148C204.225 103.422 204.344 103.049 204.344 103.049L204.331 103.082Z" fill="white"/>
<path d="M223.462 123.421C221.628 127.453 219.647 131.338 217.538 135.071L215.635 147.305C218.4 143.494 221.103 139.334 223.659 134.834L223.462 123.421Z" fill="white"/>
<path d="M229.524 108.054C228.064 112.369 226.448 116.574 224.684 120.648L224.893 132.618C227.014 128.725 229.02 124.586 230.857 120.225L229.524 108.054Z" fill="white"/>
<path d="M215.777 138.1C213.738 141.517 211.589 144.799 209.332 147.908L205.932 159.103C208.61 156.24 211.326 153.04 214.005 149.504L215.777 138.1Z" fill="white"/>
<path d="M208.192 147.289L208.759 145.418C208.8 145.004 209.001 141.775 206.814 138.083C204.299 142.075 201.522 145.914 198.445 149.561C200.181 152.831 200.295 155.69 200.222 157.056C202.921 154.115 205.592 150.858 208.192 147.289Z" fill="white"/>
<path d="M222.559 30.4346C223.523 32.8098 224.47 35.5419 225.311 38.6392C228.339 39.0617 230.505 40.2104 231.801 41.1129C230.915 38.0526 229.943 35.345 228.991 33.0067C228.511 32.6088 226.271 30.9063 222.559 30.4346Z" fill="white"/>
<path d="M236.684 65.8281C236.729 68.5644 236.667 71.436 236.482 74.4348L240.216 87.0657C240.765 83.5049 241.143 80.1165 241.377 76.9003L236.684 65.8281Z" fill="white"/>
<path d="M231.656 36.4561C232.329 38.3964 232.985 40.5215 233.597 42.8311L240.493 53.3043C240.054 50.6008 239.529 48.1682 238.971 46.0021L231.656 36.4561Z" fill="white"/>
<path d="M236.021 55.8066C236.259 57.8619 236.444 60.0197 236.563 62.2842L241.547 74.0496C241.683 71.2354 241.707 68.5648 241.642 66.0337L236.021 55.8066Z" fill="white"/>
<path d="M239.74 89.9375L236.203 77.9834C235.855 81.6837 235.309 85.5645 234.521 89.6093L237.155 101.728C237.307 101.157 237.455 100.587 237.598 100.013C238.468 96.5217 239.173 93.166 239.74 89.9375Z" fill="white"/>
<path d="M228.27 58.1445C228.405 61.1064 228.421 64.2406 228.29 67.5511C231.974 68.8475 234.173 70.9766 235.313 72.4247C235.469 68.9993 235.453 65.7461 235.305 62.6817C234.784 61.9802 232.585 59.3629 228.27 58.1445Z" fill="white"/>
<path d="M236.428 104.377L233.889 92.6816C233.212 95.7338 232.404 98.8761 231.436 102.109C231.128 103.126 230.808 104.139 230.488 105.144L231.871 117.763C233.569 113.505 235.103 109.042 236.428 104.377Z" fill="white"/>
<path d="M207.101 150.886C206.461 151.71 205.817 152.523 205.164 153.322C203.318 155.579 201.431 157.708 199.524 159.697L196.742 167.775C199.06 165.876 201.497 163.652 203.987 161.125L207.101 150.886Z" fill="white"/>
<path d="M235.169 74.4839C234.951 74.0818 233.015 70.6974 228.228 68.876C228.027 72.7609 227.625 76.8796 226.977 81.2362C230.886 83.0495 232.868 85.7036 233.688 87.1148C234.459 82.7213 234.943 78.541 235.198 74.5823L235.169 74.4839Z" fill="white"/>
<path d="M230.098 32.3339L238.027 42.6799C236.025 36.2269 233.662 31.8293 232.19 29.4664C230.45 28.0921 228.637 26.7547 226.873 25.5117C227.808 27.2224 228.941 29.4992 230.098 32.3339Z" fill="white"/>
<path d="M227.389 48.7461C227.754 51.2731 228.033 53.9601 228.201 56.8112C231.651 57.6891 233.915 59.3752 235.191 60.6305C235.003 57.8245 234.703 55.1908 234.334 52.7294L234.227 52.5366C233.952 52.2125 231.713 49.7265 227.389 48.7461Z" fill="white"/>
<path d="M215.002 150.93C206.728 161.74 198.117 169.485 191.381 173.747C192.689 173.644 193.957 173.517 195.155 173.374C206.847 165.866 224.212 147.701 235.321 121.098L235.358 121.016C237.507 115.859 239.419 110.387 241.011 104.615L241.035 104.529C241.331 103.462 241.614 102.387 241.889 101.3C245.942 85.0346 246.5 71.6446 245.597 61.2288L245.589 61.1386C245.322 58.107 244.937 55.3256 244.473 52.8027L244.44 52.6345C244.018 50.3577 243.538 48.2902 243.037 46.4359C241.884 42.19 240.535 38.7154 239.279 35.9955C238.303 34.8674 237.134 33.7024 235.842 32.5332C237.314 35.4992 238.98 39.544 240.383 44.7047C241.281 48.0112 242.11 51.9863 242.664 56.6055L242.688 56.7861C243.041 59.7561 243.279 62.9929 243.349 66.4962L243.361 67.0541C243.415 70.3237 243.312 73.8188 243.029 77.5355L242.976 78.2165C242.426 84.9115 241.265 92.3203 239.243 100.422C237.392 107.843 235.005 114.801 232.252 121.262L232.26 121.344L232.215 121.348C230 126.542 227.547 131.411 224.95 135.948L224.54 136.654C221.533 141.831 218.337 146.561 215.088 150.819L215.002 150.93Z" fill="white"/>
<path d="M197.46 161.786C195.56 163.644 193.645 165.363 191.716 166.939L189.148 173.137C190.917 172.112 192.849 170.811 194.888 169.244L197.46 161.786Z" fill="white"/>
<path d="M229.135 104.46C228.996 104.029 227.736 100.476 223.531 97.8467C222.317 102.462 220.939 107.048 219.359 111.565C222.469 113.985 223.802 116.742 224.336 118.243C226.083 114.051 227.712 109.645 229.197 105.026L229.135 104.46Z" fill="white"/>
<path d="M223.39 119.548C223.295 119.126 222.438 115.766 218.906 112.841C217.392 117.054 215.702 121.197 213.807 125.242C216.338 128.015 217.232 130.821 217.548 132.446C219.603 128.667 221.564 124.66 223.406 120.422L223.39 119.548Z" fill="white"/>
<path d="M226.78 82.5449C226.079 86.9795 225.119 91.652 223.859 96.5666C227.396 98.6588 229.114 101.342 229.865 102.892C229.98 102.511 230.099 102.129 230.218 101.744C231.473 97.5511 232.458 93.5145 233.225 89.6255L232.979 88.5014C232.798 88.0912 231.186 84.7232 226.78 82.5449Z" fill="white"/>
<path d="M216.446 133.824C216.421 133.393 216.155 129.96 213.209 126.493C211.499 130.042 209.624 133.508 207.564 136.872C209.702 140.154 210.042 143.165 210.059 144.654C212.208 141.54 214.3 138.209 216.315 134.665L216.446 133.824Z" fill="white"/>
<path d="M234.477 46.4785C234.874 48.2958 235.24 50.2403 235.556 52.3161L241.533 63.1913C241.401 60.734 241.192 58.4244 240.917 56.2666L234.477 46.4785Z" fill="white"/>
<path d="M225.475 152.076C226.053 151.374 226.631 150.656 227.21 149.918L226.902 149.996C226.435 150.689 225.959 151.382 225.475 152.076Z" fill="white"/>
<path d="M234.305 135.06C237.062 129.76 239.347 124.591 241.242 119.664L236.902 121.699C234.662 127.056 232.168 132.082 229.518 136.75L234.305 135.06Z" fill="white"/>
<path d="M227.949 148.42L228.466 148.289C231.338 144.478 234.16 140.22 236.79 135.522L235.198 136.084C233.069 140.146 230.665 144.273 227.949 148.42Z" fill="white"/>
<path d="M217.349 160.674C220.143 157.29 222.707 153.877 225.049 150.472L219.556 151.875C216.627 155.727 213.653 159.197 210.732 162.262L217.349 160.674Z" fill="white"/>
<path d="M226.115 148.888C228.847 144.798 231.271 140.725 233.425 136.717L228.539 138.444C226.049 142.69 223.432 146.632 220.77 150.254L226.115 148.888Z" fill="white"/>
<path d="M247.04 58.6045L248.443 56.1513C248 54.4324 247.504 52.7628 246.966 51.1465L246.121 52.41C246.478 54.3299 246.79 56.3933 247.04 58.6045Z" fill="white"/>
<path d="M190.615 166.147C190.759 165.282 191.05 162.361 189.467 158.837C182.866 164.773 175.187 169.962 166.215 174.163C166.215 174.163 171.232 174.335 177.644 174.282C181.767 172.473 186.156 169.753 190.615 166.147Z" fill="white"/>
<path d="M200.956 171.259C200.284 171.792 199.619 172.3 198.967 172.78C200.271 172.518 201.408 172.218 202.314 171.862C202.991 171.599 203.803 171.209 204.722 170.692L200.956 171.259Z" fill="white"/>
<path d="M244.675 45.9937C245.061 47.4172 245.434 48.9679 245.778 50.6376L246.443 49.6448C245.725 47.647 244.937 45.7312 244.08 43.918C244.281 44.5907 244.482 45.2799 244.675 45.9937Z" fill="white"/>
<path d="M215.748 162.364L209.094 163.964L209.09 163.948C206.969 166.081 204.889 167.993 202.883 169.683L207.449 168.998C209.849 167.381 212.687 165.166 215.748 162.364Z" fill="white"/>
<path d="M222.001 29.0885C224.692 29.3059 226.735 30.1305 228.08 30.873C226.595 27.5296 225.237 25.1503 224.405 23.8088C219.638 20.5803 215.777 18.3281 215.777 18.3281C215.777 18.3281 218.875 21.8397 222.001 29.0885Z" fill="white"/>
<path d="M237.708 133.853C240.305 129.024 242.688 123.753 244.715 118.038L242.898 118.887C241.035 123.851 238.779 129.077 236.047 134.439L237.708 133.853Z" fill="white"/>
<path d="M247.648 68.1544L250.273 65.2295C249.904 62.7189 249.44 60.2862 248.887 57.9355L247.258 60.7826C247.467 63.0963 247.602 65.5535 247.648 68.1544Z" fill="white"/>
<path d="M241.884 117.962C243.951 112.387 245.523 107.152 246.712 102.438L242.663 105.002C241.223 110.233 239.517 115.225 237.613 119.959L241.884 117.962Z" fill="white"/>
<path d="M180.732 174.24C182.915 174.195 185.179 174.121 187.411 174.006L189.675 168.55C186.685 170.822 183.69 172.73 180.732 174.24Z" fill="white"/>
<path d="M198.432 158.955L198.892 157.63C198.945 157.253 199.302 154.246 197.542 150.611C195.331 153.155 192.972 155.6 190.453 157.934C191.856 160.838 192.065 163.398 192.004 164.994C194.145 163.185 196.295 161.167 198.432 158.955Z" fill="white"/>
<path d="M243.521 117.198L245.29 116.369C246.479 112.837 247.529 109.141 248.407 105.285C248.752 103.775 249.06 102.274 249.339 100.776L248.264 101.457C247.111 106.204 245.577 111.512 243.521 117.198Z" fill="white"/>
<path d="M248.788 99.2296C248.755 99.3814 248.714 99.5373 248.682 99.6932L249.642 99.0861C250.31 95.2094 250.774 91.386 251.04 87.6406L250.913 87.7391C250.409 91.2383 249.724 95.0945 248.788 99.2296Z" fill="white"/>
<path d="M247.55 98.9468C248.358 95.3613 248.982 91.9933 249.458 88.8838L245.638 91.8867C245.072 95.0413 244.379 98.315 243.534 101.712C243.411 102.208 243.28 102.7 243.152 103.189L247.148 100.662C247.287 100.083 247.423 99.5088 247.55 98.9468Z" fill="white"/>
<path d="M249.729 87.0582C250.192 83.7559 250.496 80.7899 250.685 78.2383L247.107 81.2781C246.837 84.0717 246.463 86.9844 245.963 90.016L249.729 87.0582Z" fill="white"/>
<path d="M233.975 50.5301C233.524 47.9538 233.003 45.5909 232.449 43.4577C232.441 43.4249 232.429 43.3921 232.421 43.3592L232.277 43.1336C231.986 42.8464 229.725 40.7173 225.664 39.9912C226.242 42.2762 226.759 44.7499 227.182 47.4082C230.464 48.0441 232.704 49.4717 233.975 50.5301Z" fill="white"/>
<path d="M250.804 76.4693C250.923 74.5043 250.976 72.8388 250.992 71.522C250.865 69.9508 250.705 68.396 250.508 66.874L247.665 70.041C247.665 73.007 247.542 76.1494 247.271 79.4681L250.804 76.4693Z" fill="white"/>
<path d="M198.251 33.6872C198.251 33.6872 187.95 17.1139 173.35 19.7107C158.75 22.3075 137.41 41.1166 126.067 69.3528C114.728 97.5848 114.675 133.427 127.265 148.359C139.855 163.287 155.386 156.379 155.386 156.379C155.386 156.379 132.971 124.955 149.348 81.8525C167.414 34.3026 198.251 33.6872 198.251 33.6872Z" fill="#ED1C24"/>
<mask id="path-55-outside-1_837_65" maskUnits="userSpaceOnUse" x="147.6" y="65.1201" width="543" height="88" fill="black">
<rect fill="white" x="147.6" y="65.1201" width="543" height="88"/>
<path d="M165.24 120.08C164.653 118.747 164.013 117.253 163.32 115.6C162.68 113.947 161.986 112.053 161.24 109.92C160.546 107.787 159.8 105.36 159 102.64C158.253 99.8668 157.453 96.6935 156.6 93.1201C157.346 92.3735 158.333 91.7335 159.56 91.2001C160.84 90.6135 162.226 90.3201 163.72 90.3201C165.586 90.3201 167.133 90.7201 168.36 91.5201C169.586 92.2668 170.493 93.7068 171.08 95.8401L177.4 117.84H177.72C178.36 116.027 178.973 114.053 179.56 111.92C180.2 109.787 180.813 107.6 181.4 105.36C181.986 103.067 182.52 100.8 183 98.5601C183.533 96.2668 183.986 94.0268 184.36 91.8401C186.28 90.8268 188.386 90.3201 190.68 90.3201C192.546 90.3201 194.093 90.7201 195.32 91.5201C196.546 92.3201 197.16 93.7068 197.16 95.6801C197.16 97.1201 196.973 98.8001 196.6 100.72C196.226 102.587 195.72 104.587 195.08 106.72C194.493 108.853 193.773 111.067 192.92 113.36C192.12 115.6 191.266 117.813 190.36 120C189.453 122.187 188.52 124.267 187.56 126.24C186.6 128.16 185.666 129.893 184.76 131.44C183.266 134.053 181.88 136.187 180.6 137.84C179.32 139.493 178.093 140.773 176.92 141.68C175.746 142.64 174.573 143.28 173.4 143.6C172.226 143.973 171 144.16 169.72 144.16C167.48 144.16 165.666 143.493 164.28 142.16C162.893 140.827 162.066 139.093 161.8 136.96C163.506 135.627 165.213 134.133 166.92 132.48C168.626 130.88 170.173 129.227 171.56 127.52C170.653 127.253 169.666 126.64 168.6 125.68C167.586 124.667 166.466 122.8 165.24 120.08Z"/>
<path d="M243.071 110.56C243.071 113.867 242.565 116.827 241.551 119.44C240.538 122 239.098 124.16 237.231 125.92C235.418 127.68 233.231 129.013 230.671 129.92C228.111 130.827 225.258 131.28 222.111 131.28C218.965 131.28 216.111 130.8 213.551 129.84C210.991 128.88 208.778 127.52 206.911 125.76C205.098 123.947 203.685 121.76 202.671 119.2C201.658 116.64 201.151 113.76 201.151 110.56C201.151 107.413 201.658 104.56 202.671 102C203.685 99.4401 205.098 97.2801 206.911 95.5201C208.778 93.7068 210.991 92.3201 213.551 91.3601C216.111 90.4001 218.965 89.9201 222.111 89.9201C225.258 89.9201 228.111 90.4268 230.671 91.4401C233.231 92.4001 235.418 93.7868 237.231 95.6001C239.098 97.3601 240.538 99.5201 241.551 102.08C242.565 104.64 243.071 107.467 243.071 110.56ZM215.071 110.56C215.071 113.813 215.685 116.32 216.911 118.08C218.191 119.787 219.951 120.64 222.191 120.64C224.431 120.64 226.138 119.76 227.311 118C228.538 116.24 229.151 113.76 229.151 110.56C229.151 107.36 228.538 104.907 227.311 103.2C226.085 101.44 224.351 100.56 222.111 100.56C219.871 100.56 218.138 101.44 216.911 103.2C215.685 104.907 215.071 107.36 215.071 110.56Z"/>
<path d="M249.706 91.6801C250.24 91.5201 251.066 91.3601 252.186 91.2001C253.36 91.0401 254.56 90.9601 255.786 90.9601C256.96 90.9601 258 91.0401 258.906 91.2001C259.866 91.3601 260.666 91.6801 261.306 92.1601C261.946 92.6401 262.426 93.3068 262.746 94.1601C263.12 94.9601 263.306 96.0268 263.306 97.3601V114.56C263.306 116.747 263.84 118.32 264.906 119.28C265.973 120.187 267.52 120.64 269.546 120.64C270.773 120.64 271.76 120.533 272.506 120.32C273.306 120.107 273.92 119.893 274.346 119.68V91.6801C274.88 91.5201 275.706 91.3601 276.826 91.2001C278 91.0401 279.2 90.9601 280.426 90.9601C281.6 90.9601 282.64 91.0401 283.546 91.2001C284.506 91.3601 285.306 91.6801 285.946 92.1601C286.586 92.6401 287.066 93.3068 287.386 94.1601C287.76 94.9601 287.946 96.0268 287.946 97.3601V121.68C287.946 124.347 286.826 126.347 284.586 127.68C282.72 128.853 280.48 129.733 277.866 130.32C275.306 130.96 272.506 131.28 269.466 131.28C266.586 131.28 263.92 130.96 261.466 130.32C259.066 129.68 256.986 128.693 255.226 127.36C253.466 126.027 252.106 124.32 251.146 122.24C250.186 120.107 249.706 117.547 249.706 114.56V91.6801Z"/>
<path d="M309.869 129.92C309.336 130.08 308.482 130.24 307.309 130.4C306.189 130.56 305.016 130.64 303.789 130.64C302.616 130.64 301.549 130.56 300.589 130.4C299.682 130.24 298.909 129.92 298.269 129.44C297.629 128.96 297.122 128.32 296.749 127.52C296.429 126.667 296.269 125.573 296.269 124.24V100.24C296.269 99.0135 296.482 97.9735 296.909 97.1201C297.389 96.2134 298.056 95.4134 298.909 94.7201C299.762 94.0268 300.802 93.4135 302.029 92.8801C303.309 92.2935 304.669 91.7868 306.109 91.3601C307.549 90.9335 309.042 90.6134 310.589 90.4001C312.136 90.1335 313.682 90.0001 315.229 90.0001C317.789 90.0001 319.816 90.5068 321.309 91.5201C322.802 92.4801 323.549 94.0801 323.549 96.3201C323.549 97.0668 323.442 97.8135 323.229 98.5601C323.016 99.2535 322.749 99.8935 322.429 100.48C321.309 100.48 320.162 100.533 318.989 100.64C317.816 100.747 316.669 100.907 315.549 101.12C314.429 101.333 313.362 101.573 312.349 101.84C311.389 102.053 310.562 102.32 309.869 102.64V129.92Z"/>
<path d="M327.748 115.12C327.374 114.533 327.028 113.76 326.708 112.8C326.388 111.84 326.228 110.827 326.228 109.76C326.228 107.787 326.681 106.373 327.588 105.52C328.494 104.613 329.668 104.16 331.108 104.16H348.228C348.548 104.747 348.868 105.52 349.188 106.48C349.561 107.44 349.748 108.453 349.748 109.52C349.748 111.493 349.294 112.933 348.388 113.84C347.481 114.693 346.308 115.12 344.868 115.12H327.748Z"/>
<path d="M369.869 129.92C369.336 130.08 368.482 130.24 367.309 130.4C366.189 130.56 365.016 130.64 363.789 130.64C362.616 130.64 361.549 130.56 360.589 130.4C359.682 130.24 358.909 129.92 358.269 129.44C357.629 128.96 357.122 128.32 356.749 127.52C356.429 126.667 356.269 125.573 356.269 124.24V100.24C356.269 99.0135 356.482 97.9735 356.909 97.1201C357.389 96.2134 358.056 95.4134 358.909 94.7201C359.762 94.0268 360.802 93.4135 362.029 92.8801C363.309 92.2935 364.669 91.7868 366.109 91.3601C367.549 90.9335 369.042 90.6134 370.589 90.4001C372.136 90.1335 373.682 90.0001 375.229 90.0001C377.789 90.0001 379.816 90.5068 381.309 91.5201C382.802 92.4801 383.549 94.0801 383.549 96.3201C383.549 97.0668 383.442 97.8135 383.229 98.5601C383.016 99.2535 382.749 99.8935 382.429 100.48C381.309 100.48 380.162 100.533 378.989 100.64C377.816 100.747 376.669 100.907 375.549 101.12C374.429 101.333 373.362 101.573 372.349 101.84C371.389 102.053 370.562 102.32 369.869 102.64V129.92Z"/>
<path d="M388.84 80.3201C388.84 78.2934 389.506 76.5868 390.84 75.2001C392.226 73.8134 394.04 73.1201 396.28 73.1201C398.52 73.1201 400.306 73.8134 401.64 75.2001C403.026 76.5868 403.72 78.2934 403.72 80.3201C403.72 82.3468 403.026 84.0535 401.64 85.4401C400.306 86.8268 398.52 87.5201 396.28 87.5201C394.04 87.5201 392.226 86.8268 390.84 85.4401C389.506 84.0535 388.84 82.3468 388.84 80.3201ZM403.08 129.92C402.493 130.027 401.613 130.16 400.44 130.32C399.32 130.533 398.173 130.64 397 130.64C395.826 130.64 394.76 130.56 393.8 130.4C392.893 130.24 392.12 129.92 391.48 129.44C390.84 128.96 390.333 128.32 389.96 127.52C389.64 126.667 389.48 125.573 389.48 124.24V91.6801C390.066 91.5734 390.92 91.4401 392.04 91.2801C393.213 91.0668 394.386 90.9601 395.56 90.9601C396.733 90.9601 397.773 91.0401 398.68 91.2001C399.64 91.3601 400.44 91.6801 401.08 92.1601C401.72 92.6401 402.2 93.3068 402.52 94.1601C402.893 94.9601 403.08 96.0268 403.08 97.3601V129.92Z"/>
<path d="M430.378 89.9201C432.564 89.9201 434.698 90.2401 436.778 90.8801C438.911 91.4668 440.751 92.3735 442.298 93.6001C443.898 92.5335 445.684 91.6535 447.658 90.9601C449.684 90.2668 452.111 89.9201 454.938 89.9201C456.964 89.9201 458.938 90.1868 460.858 90.7201C462.831 91.2535 464.564 92.1068 466.058 93.2801C467.604 94.4001 468.831 95.9201 469.738 97.8401C470.644 99.7068 471.098 102 471.098 104.72V129.92C470.564 130.08 469.711 130.24 468.538 130.4C467.418 130.56 466.244 130.64 465.018 130.64C463.844 130.64 462.778 130.56 461.818 130.4C460.911 130.24 460.138 129.92 459.498 129.44C458.858 128.96 458.351 128.32 457.978 127.52C457.658 126.667 457.498 125.573 457.498 124.24V105.12C457.498 103.52 457.044 102.373 456.138 101.68C455.231 100.933 454.004 100.56 452.458 100.56C451.711 100.56 450.911 100.747 450.058 101.12C449.204 101.44 448.564 101.787 448.138 102.16C448.191 102.373 448.218 102.587 448.218 102.8C448.218 102.96 448.218 103.12 448.218 103.28V129.92C447.631 130.08 446.751 130.24 445.578 130.4C444.458 130.56 443.311 130.64 442.138 130.64C440.964 130.64 439.898 130.56 438.938 130.4C438.031 130.24 437.258 129.92 436.618 129.44C435.978 128.96 435.471 128.32 435.098 127.52C434.778 126.667 434.618 125.573 434.618 124.24V105.12C434.618 103.52 434.111 102.373 433.098 101.68C432.138 100.933 430.964 100.56 429.578 100.56C428.618 100.56 427.791 100.72 427.098 101.04C426.404 101.307 425.818 101.573 425.338 101.84V129.92C424.804 130.08 423.951 130.24 422.778 130.4C421.658 130.56 420.484 130.64 419.258 130.64C418.084 130.64 417.018 130.56 416.058 130.4C415.151 130.24 414.378 129.92 413.738 129.44C413.098 128.96 412.591 128.32 412.218 127.52C411.898 126.667 411.738 125.573 411.738 124.24V100.08C411.738 98.6401 412.031 97.4935 412.618 96.6401C413.258 95.7868 414.111 94.9868 415.178 94.2401C416.991 92.9601 419.231 91.9201 421.898 91.1201C424.618 90.3201 427.444 89.9201 430.378 89.9201Z"/>
<path d="M512.194 118.4C512.194 122.453 510.674 125.627 507.634 127.92C504.594 130.213 500.114 131.36 494.194 131.36C491.954 131.36 489.874 131.2 487.954 130.88C486.034 130.56 484.381 130.08 482.994 129.44C481.661 128.747 480.594 127.893 479.794 126.88C479.047 125.867 478.674 124.667 478.674 123.28C478.674 122 478.941 120.933 479.474 120.08C480.007 119.173 480.647 118.427 481.394 117.84C482.941 118.693 484.701 119.467 486.674 120.16C488.701 120.8 491.021 121.12 493.634 121.12C495.287 121.12 496.541 120.88 497.394 120.4C498.301 119.92 498.754 119.28 498.754 118.48C498.754 117.733 498.434 117.147 497.794 116.72C497.154 116.293 496.087 115.947 494.594 115.68L492.194 115.2C487.554 114.293 484.087 112.88 481.794 110.96C479.554 108.987 478.434 106.187 478.434 102.56C478.434 100.587 478.861 98.8001 479.714 97.2001C480.567 95.6001 481.767 94.2668 483.314 93.2001C484.861 92.1335 486.701 91.3068 488.834 90.7201C491.021 90.1335 493.421 89.8401 496.034 89.8401C498.007 89.8401 499.847 90.0001 501.554 90.3201C503.314 90.5868 504.834 91.0134 506.114 91.6001C507.394 92.1868 508.407 92.9601 509.154 93.9201C509.901 94.8268 510.274 95.9201 510.274 97.2001C510.274 98.4268 510.034 99.4935 509.554 100.4C509.127 101.253 508.567 101.973 507.874 102.56C507.447 102.293 506.807 102.027 505.954 101.76C505.101 101.44 504.167 101.173 503.154 100.96C502.141 100.693 501.101 100.48 500.034 100.32C499.021 100.16 498.087 100.08 497.234 100.08C495.474 100.08 494.114 100.293 493.154 100.72C492.194 101.093 491.714 101.707 491.714 102.56C491.714 103.147 491.981 103.627 492.514 104C493.047 104.373 494.061 104.72 495.554 105.04L498.034 105.6C503.154 106.773 506.781 108.4 508.914 110.48C511.101 112.507 512.194 115.147 512.194 118.4Z"/>
<path d="M516.76 123.52C516.76 121.28 517.453 119.413 518.84 117.92C520.226 116.427 522.12 115.68 524.52 115.68C526.92 115.68 528.813 116.427 530.2 117.92C531.586 119.413 532.28 121.28 532.28 123.52C532.28 125.76 531.586 127.627 530.2 129.12C528.813 130.613 526.92 131.36 524.52 131.36C522.12 131.36 520.226 130.613 518.84 129.12C517.453 127.627 516.76 125.76 516.76 123.52Z"/>
<path d="M559.361 100.64C558.028 100.64 556.748 100.853 555.521 101.28C554.348 101.707 553.308 102.347 552.401 103.2C551.548 104 550.854 105.013 550.321 106.24C549.788 107.467 549.521 108.907 549.521 110.56C549.521 113.867 550.454 116.347 552.321 118C554.241 119.653 556.561 120.48 559.281 120.48C560.881 120.48 562.268 120.293 563.441 119.92C564.614 119.547 565.654 119.147 566.561 118.72C567.628 119.467 568.428 120.293 568.961 121.2C569.494 122.053 569.761 123.093 569.761 124.32C569.761 126.507 568.721 128.213 566.641 129.44C564.561 130.613 561.681 131.2 558.001 131.2C554.641 131.2 551.601 130.72 548.881 129.76C546.161 128.747 543.814 127.36 541.841 125.6C539.921 123.787 538.428 121.627 537.361 119.12C536.294 116.613 535.761 113.84 535.761 110.8C535.761 107.28 536.321 104.213 537.441 101.6C538.614 98.9334 540.188 96.7468 542.161 95.0401C544.134 93.3335 546.401 92.0535 548.961 91.2001C551.574 90.3468 554.321 89.9201 557.201 89.9201C561.041 89.9201 564.001 90.6135 566.081 92.0001C568.161 93.3868 569.201 95.1734 569.201 97.3601C569.201 98.3734 568.961 99.3335 568.481 100.24C568.001 101.093 567.441 101.84 566.801 102.48C565.894 102.053 564.801 101.653 563.521 101.28C562.241 100.853 560.854 100.64 559.361 100.64Z"/>
<path d="M615.65 110.56C615.65 113.867 615.143 116.827 614.13 119.44C613.116 122 611.676 124.16 609.81 125.92C607.996 127.68 605.81 129.013 603.25 129.92C600.69 130.827 597.836 131.28 594.69 131.28C591.543 131.28 588.69 130.8 586.13 129.84C583.57 128.88 581.356 127.52 579.49 125.76C577.676 123.947 576.263 121.76 575.25 119.2C574.236 116.64 573.73 113.76 573.73 110.56C573.73 107.413 574.236 104.56 575.25 102C576.263 99.4401 577.676 97.2801 579.49 95.5201C581.356 93.7068 583.57 92.3201 586.13 91.3601C588.69 90.4001 591.543 89.9201 594.69 89.9201C597.836 89.9201 600.69 90.4268 603.25 91.4401C605.81 92.4001 607.996 93.7868 609.81 95.6001C611.676 97.3601 613.116 99.5201 614.13 102.08C615.143 104.64 615.65 107.467 615.65 110.56ZM587.65 110.56C587.65 113.813 588.263 116.32 589.49 118.08C590.77 119.787 592.53 120.64 594.77 120.64C597.01 120.64 598.716 119.76 599.89 118C601.116 116.24 601.73 113.76 601.73 110.56C601.73 107.36 601.116 104.907 599.89 103.2C598.663 101.44 596.93 100.56 594.69 100.56C592.45 100.56 590.716 101.44 589.49 103.2C588.263 104.907 587.65 107.36 587.65 110.56Z"/>
<path d="M640.925 89.9201C643.111 89.9201 645.245 90.2401 647.325 90.8801C649.458 91.4668 651.298 92.3735 652.845 93.6001C654.445 92.5335 656.231 91.6535 658.205 90.9601C660.231 90.2668 662.658 89.9201 665.485 89.9201C667.511 89.9201 669.485 90.1868 671.405 90.7201C673.378 91.2535 675.111 92.1068 676.605 93.2801C678.151 94.4001 679.378 95.9201 680.285 97.8401C681.191 99.7068 681.645 102 681.645 104.72V129.92C681.111 130.08 680.258 130.24 679.085 130.4C677.965 130.56 676.791 130.64 675.565 130.64C674.391 130.64 673.325 130.56 672.365 130.4C671.458 130.24 670.685 129.92 670.045 129.44C669.405 128.96 668.898 128.32 668.525 127.52C668.205 126.667 668.045 125.573 668.045 124.24V105.12C668.045 103.52 667.591 102.373 666.685 101.68C665.778 100.933 664.551 100.56 663.005 100.56C662.258 100.56 661.458 100.747 660.605 101.12C659.751 101.44 659.111 101.787 658.685 102.16C658.738 102.373 658.765 102.587 658.765 102.8C658.765 102.96 658.765 103.12 658.765 103.28V129.92C658.178 130.08 657.298 130.24 656.125 130.4C655.005 130.56 653.858 130.64 652.685 130.64C651.511 130.64 650.445 130.56 649.485 130.4C648.578 130.24 647.805 129.92 647.165 129.44C646.525 128.96 646.018 128.32 645.645 127.52C645.325 126.667 645.165 125.573 645.165 124.24V105.12C645.165 103.52 644.658 102.373 643.645 101.68C642.685 100.933 641.511 100.56 640.125 100.56C639.165 100.56 638.338 100.72 637.645 101.04C636.951 101.307 636.365 101.573 635.885 101.84V129.92C635.351 130.08 634.498 130.24 633.325 130.4C632.205 130.56 631.031 130.64 629.805 130.64C628.631 130.64 627.565 130.56 626.605 130.4C625.698 130.24 624.925 129.92 624.285 129.44C623.645 128.96 623.138 128.32 622.765 127.52C622.445 126.667 622.285 125.573 622.285 124.24V100.08C622.285 98.6401 622.578 97.4935 623.165 96.6401C623.805 95.7868 624.658 94.9868 625.725 94.2401C627.538 92.9601 629.778 91.9201 632.445 91.1201C635.165 90.3201 637.991 89.9201 640.925 89.9201Z"/>
</mask>
<path d="M165.24 120.08C164.653 118.747 164.013 117.253 163.32 115.6C162.68 113.947 161.986 112.053 161.24 109.92C160.546 107.787 159.8 105.36 159 102.64C158.253 99.8668 157.453 96.6935 156.6 93.1201C157.346 92.3735 158.333 91.7335 159.56 91.2001C160.84 90.6135 162.226 90.3201 163.72 90.3201C165.586 90.3201 167.133 90.7201 168.36 91.5201C169.586 92.2668 170.493 93.7068 171.08 95.8401L177.4 117.84H177.72C178.36 116.027 178.973 114.053 179.56 111.92C180.2 109.787 180.813 107.6 181.4 105.36C181.986 103.067 182.52 100.8 183 98.5601C183.533 96.2668 183.986 94.0268 184.36 91.8401C186.28 90.8268 188.386 90.3201 190.68 90.3201C192.546 90.3201 194.093 90.7201 195.32 91.5201C196.546 92.3201 197.16 93.7068 197.16 95.6801C197.16 97.1201 196.973 98.8001 196.6 100.72C196.226 102.587 195.72 104.587 195.08 106.72C194.493 108.853 193.773 111.067 192.92 113.36C192.12 115.6 191.266 117.813 190.36 120C189.453 122.187 188.52 124.267 187.56 126.24C186.6 128.16 185.666 129.893 184.76 131.44C183.266 134.053 181.88 136.187 180.6 137.84C179.32 139.493 178.093 140.773 176.92 141.68C175.746 142.64 174.573 143.28 173.4 143.6C172.226 143.973 171 144.16 169.72 144.16C167.48 144.16 165.666 143.493 164.28 142.16C162.893 140.827 162.066 139.093 161.8 136.96C163.506 135.627 165.213 134.133 166.92 132.48C168.626 130.88 170.173 129.227 171.56 127.52C170.653 127.253 169.666 126.64 168.6 125.68C167.586 124.667 166.466 122.8 165.24 120.08Z" fill="black"/>
<path d="M243.071 110.56C243.071 113.867 242.565 116.827 241.551 119.44C240.538 122 239.098 124.16 237.231 125.92C235.418 127.68 233.231 129.013 230.671 129.92C228.111 130.827 225.258 131.28 222.111 131.28C218.965 131.28 216.111 130.8 213.551 129.84C210.991 128.88 208.778 127.52 206.911 125.76C205.098 123.947 203.685 121.76 202.671 119.2C201.658 116.64 201.151 113.76 201.151 110.56C201.151 107.413 201.658 104.56 202.671 102C203.685 99.4401 205.098 97.2801 206.911 95.5201C208.778 93.7068 210.991 92.3201 213.551 91.3601C216.111 90.4001 218.965 89.9201 222.111 89.9201C225.258 89.9201 228.111 90.4268 230.671 91.4401C233.231 92.4001 235.418 93.7868 237.231 95.6001C239.098 97.3601 240.538 99.5201 241.551 102.08C242.565 104.64 243.071 107.467 243.071 110.56ZM215.071 110.56C215.071 113.813 215.685 116.32 216.911 118.08C218.191 119.787 219.951 120.64 222.191 120.64C224.431 120.64 226.138 119.76 227.311 118C228.538 116.24 229.151 113.76 229.151 110.56C229.151 107.36 228.538 104.907 227.311 103.2C226.085 101.44 224.351 100.56 222.111 100.56C219.871 100.56 218.138 101.44 216.911 103.2C215.685 104.907 215.071 107.36 215.071 110.56Z" fill="black"/>
<path d="M249.706 91.6801C250.24 91.5201 251.066 91.3601 252.186 91.2001C253.36 91.0401 254.56 90.9601 255.786 90.9601C256.96 90.9601 258 91.0401 258.906 91.2001C259.866 91.3601 260.666 91.6801 261.306 92.1601C261.946 92.6401 262.426 93.3068 262.746 94.1601C263.12 94.9601 263.306 96.0268 263.306 97.3601V114.56C263.306 116.747 263.84 118.32 264.906 119.28C265.973 120.187 267.52 120.64 269.546 120.64C270.773 120.64 271.76 120.533 272.506 120.32C273.306 120.107 273.92 119.893 274.346 119.68V91.6801C274.88 91.5201 275.706 91.3601 276.826 91.2001C278 91.0401 279.2 90.9601 280.426 90.9601C281.6 90.9601 282.64 91.0401 283.546 91.2001C284.506 91.3601 285.306 91.6801 285.946 92.1601C286.586 92.6401 287.066 93.3068 287.386 94.1601C287.76 94.9601 287.946 96.0268 287.946 97.3601V121.68C287.946 124.347 286.826 126.347 284.586 127.68C282.72 128.853 280.48 129.733 277.866 130.32C275.306 130.96 272.506 131.28 269.466 131.28C266.586 131.28 263.92 130.96 261.466 130.32C259.066 129.68 256.986 128.693 255.226 127.36C253.466 126.027 252.106 124.32 251.146 122.24C250.186 120.107 249.706 117.547 249.706 114.56V91.6801Z" fill="black"/>
<path d="M309.869 129.92C309.336 130.08 308.482 130.24 307.309 130.4C306.189 130.56 305.016 130.64 303.789 130.64C302.616 130.64 301.549 130.56 300.589 130.4C299.682 130.24 298.909 129.92 298.269 129.44C297.629 128.96 297.122 128.32 296.749 127.52C296.429 126.667 296.269 125.573 296.269 124.24V100.24C296.269 99.0135 296.482 97.9735 296.909 97.1201C297.389 96.2134 298.056 95.4134 298.909 94.7201C299.762 94.0268 300.802 93.4135 302.029 92.8801C303.309 92.2935 304.669 91.7868 306.109 91.3601C307.549 90.9335 309.042 90.6134 310.589 90.4001C312.136 90.1335 313.682 90.0001 315.229 90.0001C317.789 90.0001 319.816 90.5068 321.309 91.5201C322.802 92.4801 323.549 94.0801 323.549 96.3201C323.549 97.0668 323.442 97.8135 323.229 98.5601C323.016 99.2535 322.749 99.8935 322.429 100.48C321.309 100.48 320.162 100.533 318.989 100.64C317.816 100.747 316.669 100.907 315.549 101.12C314.429 101.333 313.362 101.573 312.349 101.84C311.389 102.053 310.562 102.32 309.869 102.64V129.92Z" fill="black"/>
<path d="M327.748 115.12C327.374 114.533 327.028 113.76 326.708 112.8C326.388 111.84 326.228 110.827 326.228 109.76C326.228 107.787 326.681 106.373 327.588 105.52C328.494 104.613 329.668 104.16 331.108 104.16H348.228C348.548 104.747 348.868 105.52 349.188 106.48C349.561 107.44 349.748 108.453 349.748 109.52C349.748 111.493 349.294 112.933 348.388 113.84C347.481 114.693 346.308 115.12 344.868 115.12H327.748Z" fill="black"/>
<path d="M369.869 129.92C369.336 130.08 368.482 130.24 367.309 130.4C366.189 130.56 365.016 130.64 363.789 130.64C362.616 130.64 361.549 130.56 360.589 130.4C359.682 130.24 358.909 129.92 358.269 129.44C357.629 128.96 357.122 128.32 356.749 127.52C356.429 126.667 356.269 125.573 356.269 124.24V100.24C356.269 99.0135 356.482 97.9735 356.909 97.1201C357.389 96.2134 358.056 95.4134 358.909 94.7201C359.762 94.0268 360.802 93.4135 362.029 92.8801C363.309 92.2935 364.669 91.7868 366.109 91.3601C367.549 90.9335 369.042 90.6134 370.589 90.4001C372.136 90.1335 373.682 90.0001 375.229 90.0001C377.789 90.0001 379.816 90.5068 381.309 91.5201C382.802 92.4801 383.549 94.0801 383.549 96.3201C383.549 97.0668 383.442 97.8135 383.229 98.5601C383.016 99.2535 382.749 99.8935 382.429 100.48C381.309 100.48 380.162 100.533 378.989 100.64C377.816 100.747 376.669 100.907 375.549 101.12C374.429 101.333 373.362 101.573 372.349 101.84C371.389 102.053 370.562 102.32 369.869 102.64V129.92Z" fill="black"/>
<path d="M388.84 80.3201C388.84 78.2934 389.506 76.5868 390.84 75.2001C392.226 73.8134 394.04 73.1201 396.28 73.1201C398.52 73.1201 400.306 73.8134 401.64 75.2001C403.026 76.5868 403.72 78.2934 403.72 80.3201C403.72 82.3468 403.026 84.0535 401.64 85.4401C400.306 86.8268 398.52 87.5201 396.28 87.5201C394.04 87.5201 392.226 86.8268 390.84 85.4401C389.506 84.0535 388.84 82.3468 388.84 80.3201ZM403.08 129.92C402.493 130.027 401.613 130.16 400.44 130.32C399.32 130.533 398.173 130.64 397 130.64C395.826 130.64 394.76 130.56 393.8 130.4C392.893 130.24 392.12 129.92 391.48 129.44C390.84 128.96 390.333 128.32 389.96 127.52C389.64 126.667 389.48 125.573 389.48 124.24V91.6801C390.066 91.5734 390.92 91.4401 392.04 91.2801C393.213 91.0668 394.386 90.9601 395.56 90.9601C396.733 90.9601 397.773 91.0401 398.68 91.2001C399.64 91.3601 400.44 91.6801 401.08 92.1601C401.72 92.6401 402.2 93.3068 402.52 94.1601C402.893 94.9601 403.08 96.0268 403.08 97.3601V129.92Z" fill="black"/>
<path d="M430.378 89.9201C432.564 89.9201 434.698 90.2401 436.778 90.8801C438.911 91.4668 440.751 92.3735 442.298 93.6001C443.898 92.5335 445.684 91.6535 447.658 90.9601C449.684 90.2668 452.111 89.9201 454.938 89.9201C456.964 89.9201 458.938 90.1868 460.858 90.7201C462.831 91.2535 464.564 92.1068 466.058 93.2801C467.604 94.4001 468.831 95.9201 469.738 97.8401C470.644 99.7068 471.098 102 471.098 104.72V129.92C470.564 130.08 469.711 130.24 468.538 130.4C467.418 130.56 466.244 130.64 465.018 130.64C463.844 130.64 462.778 130.56 461.818 130.4C460.911 130.24 460.138 129.92 459.498 129.44C458.858 128.96 458.351 128.32 457.978 127.52C457.658 126.667 457.498 125.573 457.498 124.24V105.12C457.498 103.52 457.044 102.373 456.138 101.68C455.231 100.933 454.004 100.56 452.458 100.56C451.711 100.56 450.911 100.747 450.058 101.12C449.204 101.44 448.564 101.787 448.138 102.16C448.191 102.373 448.218 102.587 448.218 102.8C448.218 102.96 448.218 103.12 448.218 103.28V129.92C447.631 130.08 446.751 130.24 445.578 130.4C444.458 130.56 443.311 130.64 442.138 130.64C440.964 130.64 439.898 130.56 438.938 130.4C438.031 130.24 437.258 129.92 436.618 129.44C435.978 128.96 435.471 128.32 435.098 127.52C434.778 126.667 434.618 125.573 434.618 124.24V105.12C434.618 103.52 434.111 102.373 433.098 101.68C432.138 100.933 430.964 100.56 429.578 100.56C428.618 100.56 427.791 100.72 427.098 101.04C426.404 101.307 425.818 101.573 425.338 101.84V129.92C424.804 130.08 423.951 130.24 422.778 130.4C421.658 130.56 420.484 130.64 419.258 130.64C418.084 130.64 417.018 130.56 416.058 130.4C415.151 130.24 414.378 129.92 413.738 129.44C413.098 128.96 412.591 128.32 412.218 127.52C411.898 126.667 411.738 125.573 411.738 124.24V100.08C411.738 98.6401 412.031 97.4935 412.618 96.6401C413.258 95.7868 414.111 94.9868 415.178 94.2401C416.991 92.9601 419.231 91.9201 421.898 91.1201C424.618 90.3201 427.444 89.9201 430.378 89.9201Z" fill="black"/>
<path d="M512.194 118.4C512.194 122.453 510.674 125.627 507.634 127.92C504.594 130.213 500.114 131.36 494.194 131.36C491.954 131.36 489.874 131.2 487.954 130.88C486.034 130.56 484.381 130.08 482.994 129.44C481.661 128.747 480.594 127.893 479.794 126.88C479.047 125.867 478.674 124.667 478.674 123.28C478.674 122 478.941 120.933 479.474 120.08C480.007 119.173 480.647 118.427 481.394 117.84C482.941 118.693 484.701 119.467 486.674 120.16C488.701 120.8 491.021 121.12 493.634 121.12C495.287 121.12 496.541 120.88 497.394 120.4C498.301 119.92 498.754 119.28 498.754 118.48C498.754 117.733 498.434 117.147 497.794 116.72C497.154 116.293 496.087 115.947 494.594 115.68L492.194 115.2C487.554 114.293 484.087 112.88 481.794 110.96C479.554 108.987 478.434 106.187 478.434 102.56C478.434 100.587 478.861 98.8001 479.714 97.2001C480.567 95.6001 481.767 94.2668 483.314 93.2001C484.861 92.1335 486.701 91.3068 488.834 90.7201C491.021 90.1335 493.421 89.8401 496.034 89.8401C498.007 89.8401 499.847 90.0001 501.554 90.3201C503.314 90.5868 504.834 91.0134 506.114 91.6001C507.394 92.1868 508.407 92.9601 509.154 93.9201C509.901 94.8268 510.274 95.9201 510.274 97.2001C510.274 98.4268 510.034 99.4935 509.554 100.4C509.127 101.253 508.567 101.973 507.874 102.56C507.447 102.293 506.807 102.027 505.954 101.76C505.101 101.44 504.167 101.173 503.154 100.96C502.141 100.693 501.101 100.48 500.034 100.32C499.021 100.16 498.087 100.08 497.234 100.08C495.474 100.08 494.114 100.293 493.154 100.72C492.194 101.093 491.714 101.707 491.714 102.56C491.714 103.147 491.981 103.627 492.514 104C493.047 104.373 494.061 104.72 495.554 105.04L498.034 105.6C503.154 106.773 506.781 108.4 508.914 110.48C511.101 112.507 512.194 115.147 512.194 118.4Z" fill="black"/>
<path d="M516.76 123.52C516.76 121.28 517.453 119.413 518.84 117.92C520.226 116.427 522.12 115.68 524.52 115.68C526.92 115.68 528.813 116.427 530.2 117.92C531.586 119.413 532.28 121.28 532.28 123.52C532.28 125.76 531.586 127.627 530.2 129.12C528.813 130.613 526.92 131.36 524.52 131.36C522.12 131.36 520.226 130.613 518.84 129.12C517.453 127.627 516.76 125.76 516.76 123.52Z" fill="black"/>
<path d="M559.361 100.64C558.028 100.64 556.748 100.853 555.521 101.28C554.348 101.707 553.308 102.347 552.401 103.2C551.548 104 550.854 105.013 550.321 106.24C549.788 107.467 549.521 108.907 549.521 110.56C549.521 113.867 550.454 116.347 552.321 118C554.241 119.653 556.561 120.48 559.281 120.48C560.881 120.48 562.268 120.293 563.441 119.92C564.614 119.547 565.654 119.147 566.561 118.72C567.628 119.467 568.428 120.293 568.961 121.2C569.494 122.053 569.761 123.093 569.761 124.32C569.761 126.507 568.721 128.213 566.641 129.44C564.561 130.613 561.681 131.2 558.001 131.2C554.641 131.2 551.601 130.72 548.881 129.76C546.161 128.747 543.814 127.36 541.841 125.6C539.921 123.787 538.428 121.627 537.361 119.12C536.294 116.613 535.761 113.84 535.761 110.8C535.761 107.28 536.321 104.213 537.441 101.6C538.614 98.9334 540.188 96.7468 542.161 95.0401C544.134 93.3335 546.401 92.0535 548.961 91.2001C551.574 90.3468 554.321 89.9201 557.201 89.9201C561.041 89.9201 564.001 90.6135 566.081 92.0001C568.161 93.3868 569.201 95.1734 569.201 97.3601C569.201 98.3734 568.961 99.3335 568.481 100.24C568.001 101.093 567.441 101.84 566.801 102.48C565.894 102.053 564.801 101.653 563.521 101.28C562.241 100.853 560.854 100.64 559.361 100.64Z" fill="black"/>
<path d="M615.65 110.56C615.65 113.867 615.143 116.827 614.13 119.44C613.116 122 611.676 124.16 609.81 125.92C607.996 127.68 605.81 129.013 603.25 129.92C600.69 130.827 597.836 131.28 594.69 131.28C591.543 131.28 588.69 130.8 586.13 129.84C583.57 128.88 581.356 127.52 579.49 125.76C577.676 123.947 576.263 121.76 575.25 119.2C574.236 116.64 573.73 113.76 573.73 110.56C573.73 107.413 574.236 104.56 575.25 102C576.263 99.4401 577.676 97.2801 579.49 95.5201C581.356 93.7068 583.57 92.3201 586.13 91.3601C588.69 90.4001 591.543 89.9201 594.69 89.9201C597.836 89.9201 600.69 90.4268 603.25 91.4401C605.81 92.4001 607.996 93.7868 609.81 95.6001C611.676 97.3601 613.116 99.5201 614.13 102.08C615.143 104.64 615.65 107.467 615.65 110.56ZM587.65 110.56C587.65 113.813 588.263 116.32 589.49 118.08C590.77 119.787 592.53 120.64 594.77 120.64C597.01 120.64 598.716 119.76 599.89 118C601.116 116.24 601.73 113.76 601.73 110.56C601.73 107.36 601.116 104.907 599.89 103.2C598.663 101.44 596.93 100.56 594.69 100.56C592.45 100.56 590.716 101.44 589.49 103.2C588.263 104.907 587.65 107.36 587.65 110.56Z" fill="black"/>
<path d="M640.925 89.9201C643.111 89.9201 645.245 90.2401 647.325 90.8801C649.458 91.4668 651.298 92.3735 652.845 93.6001C654.445 92.5335 656.231 91.6535 658.205 90.9601C660.231 90.2668 662.658 89.9201 665.485 89.9201C667.511 89.9201 669.485 90.1868 671.405 90.7201C673.378 91.2535 675.111 92.1068 676.605 93.2801C678.151 94.4001 679.378 95.9201 680.285 97.8401C681.191 99.7068 681.645 102 681.645 104.72V129.92C681.111 130.08 680.258 130.24 679.085 130.4C677.965 130.56 676.791 130.64 675.565 130.64C674.391 130.64 673.325 130.56 672.365 130.4C671.458 130.24 670.685 129.92 670.045 129.44C669.405 128.96 668.898 128.32 668.525 127.52C668.205 126.667 668.045 125.573 668.045 124.24V105.12C668.045 103.52 667.591 102.373 666.685 101.68C665.778 100.933 664.551 100.56 663.005 100.56C662.258 100.56 661.458 100.747 660.605 101.12C659.751 101.44 659.111 101.787 658.685 102.16C658.738 102.373 658.765 102.587 658.765 102.8C658.765 102.96 658.765 103.12 658.765 103.28V129.92C658.178 130.08 657.298 130.24 656.125 130.4C655.005 130.56 653.858 130.64 652.685 130.64C651.511 130.64 650.445 130.56 649.485 130.4C648.578 130.24 647.805 129.92 647.165 129.44C646.525 128.96 646.018 128.32 645.645 127.52C645.325 126.667 645.165 125.573 645.165 124.24V105.12C645.165 103.52 644.658 102.373 643.645 101.68C642.685 100.933 641.511 100.56 640.125 100.56C639.165 100.56 638.338 100.72 637.645 101.04C636.951 101.307 636.365 101.573 635.885 101.84V129.92C635.351 130.08 634.498 130.24 633.325 130.4C632.205 130.56 631.031 130.64 629.805 130.64C628.631 130.64 627.565 130.56 626.605 130.4C625.698 130.24 624.925 129.92 624.285 129.44C623.645 128.96 623.138 128.32 622.765 127.52C622.445 126.667 622.285 125.573 622.285 124.24V100.08C622.285 98.6401 622.578 97.4935 623.165 96.6401C623.805 95.7868 624.658 94.9868 625.725 94.2401C627.538 92.9601 629.778 91.9201 632.445 91.1201C635.165 90.3201 637.991 89.9201 640.925 89.9201Z" fill="black"/>
<path d="M165.24 120.08C164.653 118.747 164.013 117.253 163.32 115.6C162.68 113.947 161.986 112.053 161.24 109.92C160.546 107.787 159.8 105.36 159 102.64C158.253 99.8668 157.453 96.6935 156.6 93.1201C157.346 92.3735 158.333 91.7335 159.56 91.2001C160.84 90.6135 162.226 90.3201 163.72 90.3201C165.586 90.3201 167.133 90.7201 168.36 91.5201C169.586 92.2668 170.493 93.7068 171.08 95.8401L177.4 117.84H177.72C178.36 116.027 178.973 114.053 179.56 111.92C180.2 109.787 180.813 107.6 181.4 105.36C181.986 103.067 182.52 100.8 183 98.5601C183.533 96.2668 183.986 94.0268 184.36 91.8401C186.28 90.8268 188.386 90.3201 190.68 90.3201C192.546 90.3201 194.093 90.7201 195.32 91.5201C196.546 92.3201 197.16 93.7068 197.16 95.6801C197.16 97.1201 196.973 98.8001 196.6 100.72C196.226 102.587 195.72 104.587 195.08 106.72C194.493 108.853 193.773 111.067 192.92 113.36C192.12 115.6 191.266 117.813 190.36 120C189.453 122.187 188.52 124.267 187.56 126.24C186.6 128.16 185.666 129.893 184.76 131.44C183.266 134.053 181.88 136.187 180.6 137.84C179.32 139.493 178.093 140.773 176.92 141.68C175.746 142.64 174.573 143.28 173.4 143.6C172.226 143.973 171 144.16 169.72 144.16C167.48 144.16 165.666 143.493 164.28 142.16C162.893 140.827 162.066 139.093 161.8 136.96C163.506 135.627 165.213 134.133 166.92 132.48C168.626 130.88 170.173 129.227 171.56 127.52C170.653 127.253 169.666 126.64 168.6 125.68C167.586 124.667 166.466 122.8 165.24 120.08Z" stroke="white" stroke-width="16" mask="url(#path-55-outside-1_837_65)"/>
<path d="M243.071 110.56C243.071 113.867 242.565 116.827 241.551 119.44C240.538 122 239.098 124.16 237.231 125.92C235.418 127.68 233.231 129.013 230.671 129.92C228.111 130.827 225.258 131.28 222.111 131.28C218.965 131.28 216.111 130.8 213.551 129.84C210.991 128.88 208.778 127.52 206.911 125.76C205.098 123.947 203.685 121.76 202.671 119.2C201.658 116.64 201.151 113.76 201.151 110.56C201.151 107.413 201.658 104.56 202.671 102C203.685 99.4401 205.098 97.2801 206.911 95.5201C208.778 93.7068 210.991 92.3201 213.551 91.3601C216.111 90.4001 218.965 89.9201 222.111 89.9201C225.258 89.9201 228.111 90.4268 230.671 91.4401C233.231 92.4001 235.418 93.7868 237.231 95.6001C239.098 97.3601 240.538 99.5201 241.551 102.08C242.565 104.64 243.071 107.467 243.071 110.56ZM215.071 110.56C215.071 113.813 215.685 116.32 216.911 118.08C218.191 119.787 219.951 120.64 222.191 120.64C224.431 120.64 226.138 119.76 227.311 118C228.538 116.24 229.151 113.76 229.151 110.56C229.151 107.36 228.538 104.907 227.311 103.2C226.085 101.44 224.351 100.56 222.111 100.56C219.871 100.56 218.138 101.44 216.911 103.2C215.685 104.907 215.071 107.36 215.071 110.56Z" stroke="white" stroke-width="16" mask="url(#path-55-outside-1_837_65)"/>
<path d="M249.706 91.6801C250.24 91.5201 251.066 91.3601 252.186 91.2001C253.36 91.0401 254.56 90.9601 255.786 90.9601C256.96 90.9601 258 91.0401 258.906 91.2001C259.866 91.3601 260.666 91.6801 261.306 92.1601C261.946 92.6401 262.426 93.3068 262.746 94.1601C263.12 94.9601 263.306 96.0268 263.306 97.3601V114.56C263.306 116.747 263.84 118.32 264.906 119.28C265.973 120.187 267.52 120.64 269.546 120.64C270.773 120.64 271.76 120.533 272.506 120.32C273.306 120.107 273.92 119.893 274.346 119.68V91.6801C274.88 91.5201 275.706 91.3601 276.826 91.2001C278 91.0401 279.2 90.9601 280.426 90.9601C281.6 90.9601 282.64 91.0401 283.546 91.2001C284.506 91.3601 285.306 91.6801 285.946 92.1601C286.586 92.6401 287.066 93.3068 287.386 94.1601C287.76 94.9601 287.946 96.0268 287.946 97.3601V121.68C287.946 124.347 286.826 126.347 284.586 127.68C282.72 128.853 280.48 129.733 277.866 130.32C275.306 130.96 272.506 131.28 269.466 131.28C266.586 131.28 263.92 130.96 261.466 130.32C259.066 129.68 256.986 128.693 255.226 127.36C253.466 126.027 252.106 124.32 251.146 122.24C250.186 120.107 249.706 117.547 249.706 114.56V91.6801Z" stroke="white" stroke-width="16" mask="url(#path-55-outside-1_837_65)"/>
<path d="M309.869 129.92C309.336 130.08 308.482 130.24 307.309 130.4C306.189 130.56 305.016 130.64 303.789 130.64C302.616 130.64 301.549 130.56 300.589 130.4C299.682 130.24 298.909 129.92 298.269 129.44C297.629 128.96 297.122 128.32 296.749 127.52C296.429 126.667 296.269 125.573 296.269 124.24V100.24C296.269 99.0135 296.482 97.9735 296.909 97.1201C297.389 96.2134 298.056 95.4134 298.909 94.7201C299.762 94.0268 300.802 93.4135 302.029 92.8801C303.309 92.2935 304.669 91.7868 306.109 91.3601C307.549 90.9335 309.042 90.6134 310.589 90.4001C312.136 90.1335 313.682 90.0001 315.229 90.0001C317.789 90.0001 319.816 90.5068 321.309 91.5201C322.802 92.4801 323.549 94.0801 323.549 96.3201C323.549 97.0668 323.442 97.8135 323.229 98.5601C323.016 99.2535 322.749 99.8935 322.429 100.48C321.309 100.48 320.162 100.533 318.989 100.64C317.816 100.747 316.669 100.907 315.549 101.12C314.429 101.333 313.362 101.573 312.349 101.84C311.389 102.053 310.562 102.32 309.869 102.64V129.92Z" stroke="white" stroke-width="16" mask="url(#path-55-outside-1_837_65)"/>
<path d="M327.748 115.12C327.374 114.533 327.028 113.76 326.708 112.8C326.388 111.84 326.228 110.827 326.228 109.76C326.228 107.787 326.681 106.373 327.588 105.52C328.494 104.613 329.668 104.16 331.108 104.16H348.228C348.548 104.747 348.868 105.52 349.188 106.48C349.561 107.44 349.748 108.453 349.748 109.52C349.748 111.493 349.294 112.933 348.388 113.84C347.481 114.693 346.308 115.12 344.868 115.12H327.748Z" stroke="white" stroke-width="16" mask="url(#path-55-outside-1_837_65)"/>
<path d="M369.869 129.92C369.336 130.08 368.482 130.24 367.309 130.4C366.189 130.56 365.016 130.64 363.789 130.64C362.616 130.64 361.549 130.56 360.589 130.4C359.682 130.24 358.909 129.92 358.269 129.44C357.629 128.96 357.122 128.32 356.749 127.52C356.429 126.667 356.269 125.573 356.269 124.24V100.24C356.269 99.0135 356.482 97.9735 356.909 97.1201C357.389 96.2134 358.056 95.4134 358.909 94.7201C359.762 94.0268 360.802 93.4135 362.029 92.8801C363.309 92.2935 364.669 91.7868 366.109 91.3601C367.549 90.9335 369.042 90.6134 370.589 90.4001C372.136 90.1335 373.682 90.0001 375.229 90.0001C377.789 90.0001 379.816 90.5068 381.309 91.5201C382.802 92.4801 383.549 94.0801 383.549 96.3201C383.549 97.0668 383.442 97.8135 383.229 98.5601C383.016 99.2535 382.749 99.8935 382.429 100.48C381.309 100.48 380.162 100.533 378.989 100.64C377.816 100.747 376.669 100.907 375.549 101.12C374.429 101.333 373.362 101.573 372.349 101.84C371.389 102.053 370.562 102.32 369.869 102.64V129.92Z" stroke="white" stroke-width="16" mask="url(#path-55-outside-1_837_65)"/>
<path d="M388.84 80.3201C388.84 78.2934 389.506 76.5868 390.84 75.2001C392.226 73.8134 394.04 73.1201 396.28 73.1201C398.52 73.1201 400.306 73.8134 401.64 75.2001C403.026 76.5868 403.72 78.2934 403.72 80.3201C403.72 82.3468 403.026 84.0535 401.64 85.4401C400.306 86.8268 398.52 87.5201 396.28 87.5201C394.04 87.5201 392.226 86.8268 390.84 85.4401C389.506 84.0535 388.84 82.3468 388.84 80.3201ZM403.08 129.92C402.493 130.027 401.613 130.16 400.44 130.32C399.32 130.533 398.173 130.64 397 130.64C395.826 130.64 394.76 130.56 393.8 130.4C392.893 130.24 392.12 129.92 391.48 129.44C390.84 128.96 390.333 128.32 389.96 127.52C389.64 126.667 389.48 125.573 389.48 124.24V91.6801C390.066 91.5734 390.92 91.4401 392.04 91.2801C393.213 91.0668 394.386 90.9601 395.56 90.9601C396.733 90.9601 397.773 91.0401 398.68 91.2001C399.64 91.3601 400.44 91.6801 401.08 92.1601C401.72 92.6401 402.2 93.3068 402.52 94.1601C402.893 94.9601 403.08 96.0268 403.08 97.3601V129.92Z" stroke="white" stroke-width="16" mask="url(#path-55-outside-1_837_65)"/>
<path d="M430.378 89.9201C432.564 89.9201 434.698 90.2401 436.778 90.8801C438.911 91.4668 440.751 92.3735 442.298 93.6001C443.898 92.5335 445.684 91.6535 447.658 90.9601C449.684 90.2668 452.111 89.9201 454.938 89.9201C456.964 89.9201 458.938 90.1868 460.858 90.7201C462.831 91.2535 464.564 92.1068 466.058 93.2801C467.604 94.4001 468.831 95.9201 469.738 97.8401C470.644 99.7068 471.098 102 471.098 104.72V129.92C470.564 130.08 469.711 130.24 468.538 130.4C467.418 130.56 466.244 130.64 465.018 130.64C463.844 130.64 462.778 130.56 461.818 130.4C460.911 130.24 460.138 129.92 459.498 129.44C458.858 128.96 458.351 128.32 457.978 127.52C457.658 126.667 457.498 125.573 457.498 124.24V105.12C457.498 103.52 457.044 102.373 456.138 101.68C455.231 100.933 454.004 100.56 452.458 100.56C451.711 100.56 450.911 100.747 450.058 101.12C449.204 101.44 448.564 101.787 448.138 102.16C448.191 102.373 448.218 102.587 448.218 102.8C448.218 102.96 448.218 103.12 448.218 103.28V129.92C447.631 130.08 446.751 130.24 445.578 130.4C444.458 130.56 443.311 130.64 442.138 130.64C440.964 130.64 439.898 130.56 438.938 130.4C438.031 130.24 437.258 129.92 436.618 129.44C435.978 128.96 435.471 128.32 435.098 127.52C434.778 126.667 434.618 125.573 434.618 124.24V105.12C434.618 103.52 434.111 102.373 433.098 101.68C432.138 100.933 430.964 100.56 429.578 100.56C428.618 100.56 427.791 100.72 427.098 101.04C426.404 101.307 425.818 101.573 425.338 101.84V129.92C424.804 130.08 423.951 130.24 422.778 130.4C421.658 130.56 420.484 130.64 419.258 130.64C418.084 130.64 417.018 130.56 416.058 130.4C415.151 130.24 414.378 129.92 413.738 129.44C413.098 128.96 412.591 128.32 412.218 127.52C411.898 126.667 411.738 125.573 411.738 124.24V100.08C411.738 98.6401 412.031 97.4935 412.618 96.6401C413.258 95.7868 414.111 94.9868 415.178 94.2401C416.991 92.9601 419.231 91.9201 421.898 91.1201C424.618 90.3201 427.444 89.9201 430.378 89.9201Z" stroke="white" stroke-width="16" mask="url(#path-55-outside-1_837_65)"/>
<path d="M512.194 118.4C512.194 122.453 510.674 125.627 507.634 127.92C504.594 130.213 500.114 131.36 494.194 131.36C491.954 131.36 489.874 131.2 487.954 130.88C486.034 130.56 484.381 130.08 482.994 129.44C481.661 128.747 480.594 127.893 479.794 126.88C479.047 125.867 478.674 124.667 478.674 123.28C478.674 122 478.941 120.933 479.474 120.08C480.007 119.173 480.647 118.427 481.394 117.84C482.941 118.693 484.701 119.467 486.674 120.16C488.701 120.8 491.021 121.12 493.634 121.12C495.287 121.12 496.541 120.88 497.394 120.4C498.301 119.92 498.754 119.28 498.754 118.48C498.754 117.733 498.434 117.147 497.794 116.72C497.154 116.293 496.087 115.947 494.594 115.68L492.194 115.2C487.554 114.293 484.087 112.88 481.794 110.96C479.554 108.987 478.434 106.187 478.434 102.56C478.434 100.587 478.861 98.8001 479.714 97.2001C480.567 95.6001 481.767 94.2668 483.314 93.2001C484.861 92.1335 486.701 91.3068 488.834 90.7201C491.021 90.1335 493.421 89.8401 496.034 89.8401C498.007 89.8401 499.847 90.0001 501.554 90.3201C503.314 90.5868 504.834 91.0134 506.114 91.6001C507.394 92.1868 508.407 92.9601 509.154 93.9201C509.901 94.8268 510.274 95.9201 510.274 97.2001C510.274 98.4268 510.034 99.4935 509.554 100.4C509.127 101.253 508.567 101.973 507.874 102.56C507.447 102.293 506.807 102.027 505.954 101.76C505.101 101.44 504.167 101.173 503.154 100.96C502.141 100.693 501.101 100.48 500.034 100.32C499.021 100.16 498.087 100.08 497.234 100.08C495.474 100.08 494.114 100.293 493.154 100.72C492.194 101.093 491.714 101.707 491.714 102.56C491.714 103.147 491.981 103.627 492.514 104C493.047 104.373 494.061 104.72 495.554 105.04L498.034 105.6C503.154 106.773 506.781 108.4 508.914 110.48C511.101 112.507 512.194 115.147 512.194 118.4Z" stroke="white" stroke-width="16" mask="url(#path-55-outside-1_837_65)"/>
<path d="M516.76 123.52C516.76 121.28 517.453 119.413 518.84 117.92C520.226 116.427 522.12 115.68 524.52 115.68C526.92 115.68 528.813 116.427 530.2 117.92C531.586 119.413 532.28 121.28 532.28 123.52C532.28 125.76 531.586 127.627 530.2 129.12C528.813 130.613 526.92 131.36 524.52 131.36C522.12 131.36 520.226 130.613 518.84 129.12C517.453 127.627 516.76 125.76 516.76 123.52Z" stroke="white" stroke-width="16" mask="url(#path-55-outside-1_837_65)"/>
<path d="M559.361 100.64C558.028 100.64 556.748 100.853 555.521 101.28C554.348 101.707 553.308 102.347 552.401 103.2C551.548 104 550.854 105.013 550.321 106.24C549.788 107.467 549.521 108.907 549.521 110.56C549.521 113.867 550.454 116.347 552.321 118C554.241 119.653 556.561 120.48 559.281 120.48C560.881 120.48 562.268 120.293 563.441 119.92C564.614 119.547 565.654 119.147 566.561 118.72C567.628 119.467 568.428 120.293 568.961 121.2C569.494 122.053 569.761 123.093 569.761 124.32C569.761 126.507 568.721 128.213 566.641 129.44C564.561 130.613 561.681 131.2 558.001 131.2C554.641 131.2 551.601 130.72 548.881 129.76C546.161 128.747 543.814 127.36 541.841 125.6C539.921 123.787 538.428 121.627 537.361 119.12C536.294 116.613 535.761 113.84 535.761 110.8C535.761 107.28 536.321 104.213 537.441 101.6C538.614 98.9334 540.188 96.7468 542.161 95.0401C544.134 93.3335 546.401 92.0535 548.961 91.2001C551.574 90.3468 554.321 89.9201 557.201 89.9201C561.041 89.9201 564.001 90.6135 566.081 92.0001C568.161 93.3868 569.201 95.1734 569.201 97.3601C569.201 98.3734 568.961 99.3335 568.481 100.24C568.001 101.093 567.441 101.84 566.801 102.48C565.894 102.053 564.801 101.653 563.521 101.28C562.241 100.853 560.854 100.64 559.361 100.64Z" stroke="white" stroke-width="16" mask="url(#path-55-outside-1_837_65)"/>
<path d="M615.65 110.56C615.65 113.867 615.143 116.827 614.13 119.44C613.116 122 611.676 124.16 609.81 125.92C607.996 127.68 605.81 129.013 603.25 129.92C600.69 130.827 597.836 131.28 594.69 131.28C591.543 131.28 588.69 130.8 586.13 129.84C583.57 128.88 581.356 127.52 579.49 125.76C577.676 123.947 576.263 121.76 575.25 119.2C574.236 116.64 573.73 113.76 573.73 110.56C573.73 107.413 574.236 104.56 575.25 102C576.263 99.4401 577.676 97.2801 579.49 95.5201C581.356 93.7068 583.57 92.3201 586.13 91.3601C588.69 90.4001 591.543 89.9201 594.69 89.9201C597.836 89.9201 600.69 90.4268 603.25 91.4401C605.81 92.4001 607.996 93.7868 609.81 95.6001C611.676 97.3601 613.116 99.5201 614.13 102.08C615.143 104.64 615.65 107.467 615.65 110.56ZM587.65 110.56C587.65 113.813 588.263 116.32 589.49 118.08C590.77 119.787 592.53 120.64 594.77 120.64C597.01 120.64 598.716 119.76 599.89 118C601.116 116.24 601.73 113.76 601.73 110.56C601.73 107.36 601.116 104.907 599.89 103.2C598.663 101.44 596.93 100.56 594.69 100.56C592.45 100.56 590.716 101.44 589.49 103.2C588.263 104.907 587.65 107.36 587.65 110.56Z" stroke="white" stroke-width="16" mask="url(#path-55-outside-1_837_65)"/>
<path d="M640.925 89.9201C643.111 89.9201 645.245 90.2401 647.325 90.8801C649.458 91.4668 651.298 92.3735 652.845 93.6001C654.445 92.5335 656.231 91.6535 658.205 90.9601C660.231 90.2668 662.658 89.9201 665.485 89.9201C667.511 89.9201 669.485 90.1868 671.405 90.7201C673.378 91.2535 675.111 92.1068 676.605 93.2801C678.151 94.4001 679.378 95.9201 680.285 97.8401C681.191 99.7068 681.645 102 681.645 104.72V129.92C681.111 130.08 680.258 130.24 679.085 130.4C677.965 130.56 676.791 130.64 675.565 130.64C674.391 130.64 673.325 130.56 672.365 130.4C671.458 130.24 670.685 129.92 670.045 129.44C669.405 128.96 668.898 128.32 668.525 127.52C668.205 126.667 668.045 125.573 668.045 124.24V105.12C668.045 103.52 667.591 102.373 666.685 101.68C665.778 100.933 664.551 100.56 663.005 100.56C662.258 100.56 661.458 100.747 660.605 101.12C659.751 101.44 659.111 101.787 658.685 102.16C658.738 102.373 658.765 102.587 658.765 102.8C658.765 102.96 658.765 103.12 658.765 103.28V129.92C658.178 130.08 657.298 130.24 656.125 130.4C655.005 130.56 653.858 130.64 652.685 130.64C651.511 130.64 650.445 130.56 649.485 130.4C648.578 130.24 647.805 129.92 647.165 129.44C646.525 128.96 646.018 128.32 645.645 127.52C645.325 126.667 645.165 125.573 645.165 124.24V105.12C645.165 103.52 644.658 102.373 643.645 101.68C642.685 100.933 641.511 100.56 640.125 100.56C639.165 100.56 638.338 100.72 637.645 101.04C636.951 101.307 636.365 101.573 635.885 101.84V129.92C635.351 130.08 634.498 130.24 633.325 130.4C632.205 130.56 631.031 130.64 629.805 130.64C628.631 130.64 627.565 130.56 626.605 130.4C625.698 130.24 624.925 129.92 624.285 129.44C623.645 128.96 623.138 128.32 622.765 127.52C622.445 126.667 622.285 125.573 622.285 124.24V100.08C622.285 98.6401 622.578 97.4935 623.165 96.6401C623.805 95.7868 624.658 94.9868 625.725 94.2401C627.538 92.9601 629.778 91.9201 632.445 91.1201C635.165 90.3201 637.991 89.9201 640.925 89.9201Z" stroke="white" stroke-width="16" mask="url(#path-55-outside-1_837_65)"/>
</svg>
